<?xml version="1.0" standalone="no"?>
<!DOCTYPE svg PUBLIC "-//W3C//DTD SVG 1.1//EN" "http://www.w3.org/Graphics/SVG/1.1/DTD/svg11.dtd" >
<!--
2013-9-30: Created.
-->
<svg>
<metadata>
Created by iconfont
</metadata>
<defs>

<font id="iconfont" horiz-adv-x="1024" >
  <font-face
    font-family="iconfont"
    font-weight="500"
    font-stretch="normal"
    units-per-em="1024"
    ascent="896"
    descent="-128"
  />
    <missing-glyph />
    
    <glyph glyph-name="shangpinmorenkuwei" unicode="&#58921;" d="M849.94 832.05H174.26a63.76 63.76 0 0 1-63.69-63.69v-768.23a63.76 63.76 0 0 1 63.69-63.69h675.68a63.76 63.76 0 0 1 63.69 63.69V768.36a63.76 63.76 0 0 1-63.69 63.69z m6.39-63.69v-169H665V774.75h184.94a6.4 6.4 0 0 0 6.39-6.39zM607.74 413.87H416.46V774.75h191.28zM359.16 226.46H167.87V542h191.29z m57.3 130.11h191.28v-362.83H416.46zM665 542h191.33v-315.54H665zM174.26 774.75h184.9v-175.41H167.87v169a6.4 6.4 0 0 0 6.39 6.41z m-6.39-774.62v169h191.29v-175.39h-184.9a6.4 6.4 0 0 0-6.39 6.39z m682.06-6.39H665V169.16h191.33v-169a6.4 6.4 0 0 0-6.39-6.42z"  horiz-adv-x="1024" />

    
    <glyph glyph-name="qitaruku" unicode="&#58922;" d="M868.48 759.42H743.77a28.8 28.8 0 0 1 0-57.6h124.71a34.15 34.15 0 0 0 34.11-34.11v-566.92a34.15 34.15 0 0 0-34.11-34.11H155.72a34.15 34.15 0 0 0-34.11 34.11V667.71a34.15 34.15 0 0 0 34.11 34.11h120.89a28.8 28.8 0 0 1 0 57.6H155.72A91.81 91.81 0 0 1 64 667.71v-566.92a91.81 91.81 0 0 1 91.71-91.71h712.77a91.81 91.81 0 0 1 91.71 91.71V667.71a91.81 91.81 0 0 1-91.71 91.71zM453.23 631.12h118.1v-60.49h-118.1zM453.23 749.37h118.1v-60.49h-118.1zM479.21 231.76c18.19-20.4 47.65-20.4 65.78 0l131.55 147.75c18.07 20.28 18.07 53.15 0.18 73.55h-105.4v60.5H453.23v-60.49H347.48c-17.89-20.4-17.89-53.21 0.18-73.55z"  horiz-adv-x="1024" />

    
    <glyph glyph-name="weixianghebing" unicode="&#58923;" d="M459.17 730.73H92.78a28.76 28.76 0 1 1 0-57.53H430.4v-577.91H92.78a28.76 28.76 0 0 1 0-57.53h366.39a28.76 28.76 0 0 1 28.76 28.76V702a28.76 28.76 0 0 1-28.76 28.73zM931.42 95.29H593.8V673.2h337.62a28.76 28.76 0 1 1 0 57.53H565A28.76 28.76 0 0 1 536.27 702v-635.47A28.76 28.76 0 0 1 565 37.77h366.42a28.76 28.76 0 0 1 0 57.53zM223.67 408.89h25.32v-49.43h-25.32zM174.18 408.89h25.32v-49.43h-25.32zM298.19 315.35c8.54-7.49 22.29-7.49 30.78 0.08l61.84 55.06c8.54 7.59 8.54 19.92 0 27.53L329 453.07a23.81 23.81 0 0 1-30.78 0.07v-44.26h-25.35v-49.43h25.32v-44.11zM766.36 408.89h25.32v-49.43h-25.32zM815.85 408.89h25.32v-49.43h-25.32zM686.37 453.07L624.54 398c-8.54-7.61-8.54-19.94 0-27.53l61.84-55.06c8.49-7.56 22.24-7.56 30.78-0.08v44.13h25.32v49.43h-25.32v44.25a23.81 23.81 0 0 1-30.79-0.07z"  horiz-adv-x="1024" />

    
    <glyph glyph-name="xiaotuiruku" unicode="&#58924;" d="M545 205.84h-90.78a28.71 28.71 0 1 1 0-57.43H545a28.71 28.71 0 1 1 0 57.43zM946.87 381.34L661.25 562.75V676.58a28.71 28.71 0 0 1-28.71 28.71H92.73A28.71 28.71 0 0 1 64 676.58v-499.45a28.71 28.71 0 0 1 28.71-28.71h59.1a28.71 28.71 0 1 1 0 57.43h-30.37v442h482.39V547a28.71 28.71 0 0 1 13.32-24.24l285.61-181.44v-135.48H844.7a28.71 28.71 0 1 1 0-57.43h86.77a28.71 28.71 0 0 1 28.71 28.71v180a28.71 28.71 0 0 1-13.31 24.22zM302.09 291.06A113.93 113.93 0 1 1 416 177.13a114.06 114.06 0 0 1-113.91 113.93z m0-170.43a56.5 56.5 0 1 0 56.5 56.5 56.57 56.57 0 0 0-56.5-56.5zM695 291.06a113.93 113.93 0 1 1 113.95-113.93A114.06 114.06 0 0 1 695 291.06z m0-170.43a56.5 56.5 0 1 0 56.5 56.5 56.57 56.57 0 0 0-56.5-56.5zM319.92 495.24h25.91v-50.59h-25.91zM370.57 495.24h25.91v-50.59h-25.91zM238.05 540.46l-63.29-56.35c-8.74-7.79-8.74-20.41 0-28.18l63.29-56.35c8.69-7.74 22.77-7.74 31.51-0.08v45.15h25.91v50.59h-25.91v45.3a24.37 24.37 0 0 1-31.51-0.08z"  horiz-adv-x="1024" />

    
    <glyph glyph-name="xuncangcaiji" unicode="&#58925;" d="M931.24 174.93a28.66 28.66 0 0 1-28.66-28.66V32.6a38.87 38.87 0 0 0-38.83-38.83H750.08a28.66 28.66 0 0 1 0-57.33h113.67a96.26 96.26 0 0 1 96.16 96.16V146.27a28.66 28.66 0 0 1-28.67 28.66zM863.75 832.05H750.08a28.66 28.66 0 0 1 0-57.33h113.67a38.87 38.87 0 0 0 38.83-38.83v-113.66a28.66 28.66 0 0 1 57.33 0V735.9a96.26 96.26 0 0 1-96.16 96.15zM93 593.56a28.66 28.66 0 0 1 28.66 28.66V735.9a38.87 38.87 0 0 0 38.83 38.83h113.63a28.66 28.66 0 0 1 0 57.33H160.45a96.26 96.26 0 0 1-96.16-96.16v-113.67A28.66 28.66 0 0 1 93 593.56zM274.12-6.23H160.45a38.87 38.87 0 0 0-38.83 38.83V146.27a28.66 28.66 0 1 1-57.33 0V32.6a96.26 96.26 0 0 1 96.16-96.16h113.67a28.66 28.66 0 0 1 0 57.33zM526.84 187.44h-30.25c-11.76 0-14.28-2.52-14.28-14.28v-31.08c0-11.76 2.52-14.28 14.28-14.28h30.24c11.76 0 14.28 2.52 14.28 14.28v31.08c-0.83 11.76-3.35 14.28-14.27 14.28zM627.64 187.44H597.4c-11.76 0-14.28-2.52-14.28-14.28v-31.08c0-11.76 2.52-14.28 14.28-14.28h30.24c11.76 0 14.28 2.52 14.28 14.28v31.08c-0.83 11.76-3.35 14.28-14.28 14.28zM426 187.44h-30.21c-11.76 0-14.28-2.52-14.28-14.28v-31.08c0-11.76 2.52-14.28 14.28-14.28H426c11.76 0 14.28 2.52 14.28 14.28v31.08c-0.81 11.76-3.33 14.28-14.28 14.28zM426 295.16h-30.21c-11.76 0-14.28-2.52-14.28-14.28v-30.24c0-11.76 2.52-14.28 14.28-14.28H426c11.76 0 14.28 2.52 14.28 14.28v31.08c-0.81 10.92-3.33 13.44-14.28 13.44zM526.84 295.16h-30.25c-11.76 0-14.28-2.52-14.28-14.28v-30.24c0-11.76 2.52-14.28 14.28-14.28h30.24c11.76 0 14.28 2.52 14.28 14.28v31.08c-0.83 10.92-3.35 13.44-14.27 13.44zM426 396.81h-30.21c-11.76 0-14.28-2.52-14.28-14.28v-31.08c0-11.76 2.52-14.28 14.28-14.28H426c11.76 0 14.28 2.52 14.28 14.28v31.08c-0.81 12.6-3.33 14.28-14.28 14.28zM727.53 433.68l11.64-8.68a24.24 24.24 0 1 1 28.92 38.91L526.18 643.77a24.24 24.24 0 0 1-29 0L256.07 463.92a24.24 24.24 0 0 1 29-38.87l11.6 8.65v-289.52a24.24 24.24 0 0 1 48.48 0V469.86l166.6 124.23 167.3-124.37v-325.54a24.24 24.24 0 0 1 48.48 0z"  horiz-adv-x="1024" />

    
    <glyph glyph-name="zhuangcherenwu" unicode="&#58926;" d="M482.73 267c0-19.94 4.28-24.22 24.21-24.22h51.27c19.94 0 24.21 4.27 24.21 24.22v52.7c-1.43 19.94-5.7 24.21-24.21 24.21h-51.26c-19.94 0-24.21-4.27-24.21-24.21zM482.73 399.66c0-19.94 4.28-24.21 24.21-24.21h51.27c19.94 0 24.21 4.27 24.21 24.21v52.7c-1.43 18.52-5.7 22.79-24.21 22.79h-51.26c-19.94 0-24.21-4.27-24.21-24.21zM139.5 375.45c19.94 0 24.21 4.27 24.21 24.21v52.7c-1.43 18.52-5.7 22.79-24.21 22.79H88.23c-19.94 0-24.21-4.27-24.21-24.21v-51.27c0-19.94 4.28-24.21 24.21-24.21zM506.95 506.7h51.27c19.94 0 24.21 4.27 24.21 24.21v52.7c-1.43 21.36-5.7 24.21-24.21 24.21h-51.27c-19.94 0-24.21-4.27-24.21-24.21v-52.7c-0.01-19.91 4.26-24.21 24.21-24.21zM257.51 449.86h25.23v-49.26h-25.23zM208.18 449.86h25.23v-49.26h-25.23zM424.09 439l-61.63 54.88a23.73 23.73 0 0 1-30.68 0.07v-44.11h-25.23v-49.26h25.23v-44c8.51-7.46 22.22-7.46 30.68 0.07l61.63 54.87c8.51 7.62 8.51 19.91 0 27.48zM555.91 210.52h-88.43a28 28 0 1 1 0-55.92h88.43a28 28 0 1 1 0 55.92zM319.33 293.5a110.95 110.95 0 1 1 110.94-110.94A111.07 111.07 0 0 1 319.33 293.5z m0-166a55 55 0 1 0 55 55 55.09 55.09 0 0 0-55-54.97zM702 293.5a110.95 110.95 0 1 1 110.91-110.94A111.07 111.07 0 0 1 702 293.5z m0-166a55 55 0 1 0 55 55 55.09 55.09 0 0 0-55-54.97zM947.22 381.41L669.08 558.07V668.92a28 28 0 0 1-28 28H115.45a28 28 0 0 1-28-28v-119.6a28 28 0 0 1 55.92 0V641h469.79v-98.25a28 28 0 0 1 13-23.6l278.1-176.7v-131.93h-56.53a28 28 0 1 1 0-55.92h84.5a28 28 0 0 1 28 28V357.81a28 28 0 0 1-13.01 23.6zM173 210.52h-29.59v90.76a28 28 0 0 1-55.92 0v-118.72a28 28 0 0 1 28-28H173a28 28 0 1 1 0 55.92z"  horiz-adv-x="1024" />

    
    <glyph glyph-name="zhuangtuo" unicode="&#58901;" d="M391 444.87h242.23a33.23 33.23 0 0 1 33.23 33.23V720.37a33.23 33.23 0 0 1-33.23 33.23H391a33.23 33.23 0 0 1-33.23-33.23V478.1A33.23 33.23 0 0 1 391 444.87z m24.11 251.39h194.02v-194.05H415.07zM214.34 102.21h242.27a33.23 33.23 0 0 1 33.23 33.23V377.7a33.23 33.23 0 0 1-33.23 33.23H214.34a33.23 33.23 0 0 1-33.23-33.23v-242.26a33.23 33.23 0 0 1 33.23-33.23z m24.11 251.39H432.5v-194.06H238.45zM534.36 377.7v-242.26a33.23 33.23 0 0 1 33.23-33.23h242.27a33.23 33.23 0 0 1 33.23 33.23V377.7a33.23 33.23 0 0 1-33.23 33.23H567.59a33.23 33.23 0 0 1-33.23-33.23z m57.34-24.1h194.05v-194.06H591.7zM931.52 268a28.67 28.67 0 0 1-28.67-28.67v-167.09h-781.5V239.3A28.67 28.67 0 0 1 92.68 268 28.67 28.67 0 0 1 64 239.3v-195.73a28.67 28.67 0 0 1 28.68-28.67h838.84a28.67 28.67 0 0 1 28.67 28.67V239.3a28.67 28.67 0 0 1-28.67 28.7z"  horiz-adv-x="1024" />

    
    <glyph glyph-name="yiku" unicode="&#58902;" d="M566.7 216.84h57.21v-111.68H566.7zM454.87 216.84h57.21v-111.68h-57.21zM343.88 384.25h-224.2A55.63 55.63 0 0 1 64 328.66V-8a55.63 55.63 0 0 1 55.66-55.59h224.2A55.63 55.63 0 0 1 399.54-8V328.66a55.63 55.63 0 0 1-55.66 55.59zM342.33 10a16.58 16.58 0 0 0-16.59-16.57H137.82a16.58 16.58 0 0 0-16.6 16.57V310.66a16.58 16.58 0 0 0 16.59 16.57h187.93a16.58 16.58 0 0 0 16.59-16.57zM944.38 191.94L804.65 316.35c-19.18 17.09-50.26 17.09-69.56 0.17v-99.67h-57.21v-111.69h57.21v-100c19.29-16.92 50.33-16.92 69.56 0.17l139.73 124.4c19.29 17.2 19.29 45.06 0 62.21zM399.73 663.34h57.21v-111.68h-57.21zM511.56 663.34h57.21v-111.68h-57.21zM904 832.05H679.76a55.63 55.63 0 0 1-55.66-55.59v-336.62a55.63 55.63 0 0 1 55.66-55.59H904a55.63 55.63 0 0 1 55.66 55.59V776.46A55.63 55.63 0 0 1 904 832.05z m-1.55-374.22a16.58 16.58 0 0 0-16.59-16.57H697.9a16.58 16.58 0 0 0-16.59 16.57V758.46A16.58 16.58 0 0 0 697.9 775h187.92a16.58 16.58 0 0 0 16.59-16.57zM79.25 576.56L219 452.15c19.18-17.09 50.26-17.09 69.56-0.17v99.67h57.21V663.34h-57.23v100c-19.29 16.92-50.33 16.92-69.56-0.17L79.25 638.76c-19.25-17.19-19.25-45.06 0-62.2z"  horiz-adv-x="1024" />

    
    <glyph glyph-name="zhuangxiangfuhe" unicode="&#58903;" d="M763.75 328.27c-108.2 0-195.92-87.71-195.92-195.92s87.71-195.92 195.92-195.92 195.92 87.71 195.92 195.92-87.72 195.92-195.92 195.92z m0-346a150.08 150.08 0 1 0 150.07 150.09 150.08 150.08 0 0 0-150.07-150.08zM485-6.29h-1.91c-0.58 0-1.15 0-1.71-0.05H121.3V774.78h224v-240.85a35.52 35.52 0 0 1 35.52-35.52h264.54a35.52 35.52 0 0 1 35.52 35.52V774.78h221.43v-360.1c0-0.55-0.06-1.19-0.06-1.83a28.67 28.67 0 1 1 57.33 0c0 0.64 0 1.28-0.06 1.91l0.06-0.08V796.53a35.52 35.52 0 0 1-35.52 35.52H99.53A35.52 35.52 0 0 1 64 796.53V-28a35.52 35.52 0 0 1 35.52-35.52l385.41 0.06a28.67 28.67 0 0 1 0.09 57.2z m-82.45 781.07h221V555.7h-221z m469.25-566c-6.32 6.38-17.33 6.38-29 0L725.45 90.59l-46.09 51.83a17.05 17.05 0 0 1-23.65 0 16.84 16.84 0 0 1 0-23.83l62.09-62.52a16.58 16.58 0 0 1 13-4.84 16.33 16.33 0 0 1 13 4.84l128 128.87a16.86 16.86 0 0 1 0 23.82z"  horiz-adv-x="1024" />

    
    <glyph glyph-name="zhuangxiangyanzheng" unicode="&#58904;" d="M763.7 328.31c-108.2 0-195.92-87.71-195.92-195.92S655.5-63.52 763.7-63.52s195.92 87.71 195.92 195.91S871.9 328.31 763.7 328.31z m0-346a150.08 150.08 0 1 0 150.08 150.08A150.08 150.08 0 0 0 763.7-17.68zM847.28 176.8l-0.38 0.29-0.43 0.21c-18.45 9.23-33.34 21.43-44.24 36.28l-0.24 0.33-0.29 0.29c-4.27 4.26-8.63 6.28-13 6-4-0.26-7.66-2.45-10.78-6.49-13.28-17-26.86-30.09-40.42-38.9l1 15.86c0.9 6.9-0.35 12.08-3.73 15.42-3.15 3.11-7.73 4.27-13.62 3.47h-33.27c-6.82-0.77-10.9-5.3-10.9-12.14s3.93-11 10.35-11.45a12.6 12.6 0 0 1-1.35-4.43l-3.47-49.85c-0.34-4.69 0.82-8.39 3.43-11s6.61-3.9 11.66-3.61h24.39a10.92 10.92 0 0 0-0.15-1.44l-0.06-0.61q-0.09-1.77-0.18-3.48a13.18 13.18 0 0 1-6.7 0.12l-0.59-0.17c-11.52-4-21.56-6.45-29.81-7.31l-0.49-0.07c-3.71-0.75-6.46-2.43-8.18-5s-2.22-5.78-1.47-9.49l0.08-0.41 0.15-0.4c2.2-5.87 7.37-8.86 14.21-8.25a32 32 0 0 1 7.16 1.52 202.7 202.7 0 0 1 23.87 6.09c-0.62-5.94-1.32-11-2.1-15.12l-0.07-0.36v-0.36c-0.07-1.45-0.4-2.38-1-2.74s-4-2-16 2.6l-0.41 0.16-0.43 0.09c-7.18 1.45-12.79-1.67-15-8.33l-0.18-0.53-0.06-0.55c-0.73-6.48 2.73-11.75 9.49-14.45l0.29-0.11c7.69-2.56 14.38-3.84 20.17-3.84a27.16 27.16 0 0 1 14.47 3.6 22.59 22.59 0 0 1 8.73 10c0.81-5.23 4.69-8.68 10.74-9.35h89.81l0.38 0.05c5.59 0.81 9.24 4.73 10 10.77l0.08 0.62-0.07 0.63c-1.13 10.11-8.53 10.9-10.77 10.9h-15.76a22.23 22.23 0 0 1 2 3.54l0.24 0.62a409 409 0 0 1 14 58.62l0.06 0.4v0.4c0 6.8-3.17 11.74-8.94 13.9l-0.32 0.12a14 14 0 0 1 2.34 6.73l0.07 0.59v0.16q2.54-1.26 5-2.28c6.64-2.91 12.67-0.91 15.75 5.26l0.17 0.34 0.12 0.36c2.05 6.28 0.17 12.04-5.35 16.18z m-136.2-36.13h-4.24l2.06 38.5v0.28a12.7 12.7 0 0 1-1.6 6.42h6.81a7.24 7.24 0 0 0 0-0.74z m71.62 43.61a65.07 65.07 0 0 0 6.59 6.9c1.07-1 2.79-2.74 5.47-5.66l0.1-0.1a183.31 183.31 0 0 1 18.09-16.51h-44.4q7.01 6.86 14.15 15.37zM735.41 140l0.57 9.41c3.25-0.92 7-0.23 11 2.14l0.08 0.05q2.53 1.58 5.09 3.41c0.68-6 4.91-9.72 11.39-9.72h14.81c-4.3-2.72-6.08-7.43-4.82-13.08l0.11-0.41c3.66-11.79 6-26.49 7.1-43.76-4.15 19.73-9.5 36.23-15.91 49.06l-0.25 0.45c-2.84 4.52-6.76 6.89-11.26 6.89a14.28 14.28 0 0 1-3.45-0.44l-0.57-0.14-0.52-0.26a11.31 11.31 0 0 1-6.22-7.15 10.09 10.09 0 0 1-7.15 3.55z m13.66-68.15a11.64 11.64 0 0 1-8.19-2.88c2.15 8.55 3.83 25.88 5.13 52.77a328.84 328.84 0 0 0 12.36-40.49c0.95-4.63 3.33-7.87 6.72-9.4z m25.53 0c2.7 1.24 6 4 6.6 9.9 1-5.43 4.3-9 9.21-9.9z m20.38 0a11.49 11.49 0 0 1 5.8 3.24 10.31 10.31 0 0 1 0.91-3.24z m20.46 66.28c-1.59-11.46-5.35-27.41-11.19-47.48a224.46 224.46 0 0 1-3.13 22.24 223.91 223.91 0 0 1-4.93 25.28l-0.14 0.53-0.24 0.49a14.46 14.46 0 0 1-5.41 6.11H818a14.19 14.19 0 0 1-2.56-7.22zM485-6.29h-1.91c-0.58 0-1.15 0-1.71-0.05H121.3V774.78h224v-240.85a35.52 35.52 0 0 1 35.52-35.52h264.54a35.52 35.52 0 0 1 35.52 35.52V774.78h221.43v-360.1c0-0.55-0.06-1.19-0.06-1.83a28.67 28.67 0 1 1 57.33 0c0 0.64 0 1.28-0.06 1.91l0.06-0.08V796.53a35.52 35.52 0 0 1-35.52 35.52H99.53A35.52 35.52 0 0 1 64 796.53V-28a35.52 35.52 0 0 1 35.52-35.52l385.41 0.06a28.67 28.67 0 0 1 0.09 57.2z m-82.45 781.07h221V555.7h-221z"  horiz-adv-x="1024" />

    
    <glyph glyph-name="zhuangxiang" unicode="&#58905;" d="M923.92 832.05H99.71A35.7 35.7 0 0 1 64 796.35v-824.21a35.7 35.7 0 0 1 35.7-35.7h824.22a35.7 35.7 0 0 1 35.7 35.7V796.35a35.7 35.7 0 0 1-35.7 35.7z m-521.37-57.28h221V555.7h-221z m499.79-781h-781v781h224v-240.84a35.52 35.52 0 0 1 35.52-35.52h264.5a35.52 35.52 0 0 1 35.52 35.52V774.77h221.46z"  horiz-adv-x="1024" />

    
    <glyph glyph-name="buhuoshangjia" unicode="&#58906;" d="M763.71 328.27c-108.2 0-195.92-87.71-195.92-195.92s87.71-195.92 195.92-195.92 195.92 87.71 195.92 195.92-87.72 195.92-195.92 195.92z m0-346a150.08 150.08 0 1 0 150.08 150.09 150.08 150.08 0 0 0-150.08-150.08zM861.85 149.34h-0.07v0.43h-81.13v81.14h-0.43a16.54 16.54 0 0 1-32.92 0.09l-0.43-0.07v-81.14h-80.62v-0.39a16.54 16.54 0 0 1-0.05-33l0.05-0.39h80.62v-80.62h0.39a16.54 16.54 0 0 1 33-0.05l0.39 0.05V116h81.14v0.43a16.54 16.54 0 0 1 0.07 32.92zM485-6.29h-1.91c-0.58 0-1.15 0-1.71-0.05H121.3V774.78h224v-240.85a35.52 35.52 0 0 1 35.52-35.52h264.54a35.52 35.52 0 0 1 35.52 35.52V774.78h221.43v-360.1c0-0.55-0.06-1.19-0.06-1.83a28.67 28.67 0 1 1 57.33 0c0 0.64 0 1.28-0.06 1.91l0.06-0.08V796.53a35.52 35.52 0 0 1-35.52 35.52H99.53A35.52 35.52 0 0 1 64 796.53V-28a35.52 35.52 0 0 1 35.52-35.52l385.41 0.06a28.67 28.67 0 0 1 0.09 57.2z m-82.45 781.07h221V555.7h-221z"  horiz-adv-x="1024" />

    
    <glyph glyph-name="jianhuoxiajia" unicode="&#58907;" d="M763.71 328.27c-108.2 0-195.92-87.71-195.92-195.92s87.71-195.92 195.92-195.92 195.92 87.71 195.92 195.92-87.72 195.92-195.92 195.92z m0-346a150.08 150.08 0 1 0 150.08 150.09 150.08 150.08 0 0 0-150.08-150.08zM861.85 149.34h-0.07v0.43H666.25v-0.39a16.54 16.54 0 0 1-0.05-33l0.05-0.39h195.54v0.43a16.54 16.54 0 0 1 0.07 32.92zM485-6.29h-1.91c-0.58 0-1.15 0-1.71-0.05H121.3V774.78h224v-240.85a35.52 35.52 0 0 1 35.52-35.52h264.54a35.52 35.52 0 0 1 35.52 35.52V774.78h221.43v-360.1c0-0.55-0.06-1.19-0.06-1.83a28.67 28.67 0 1 1 57.33 0c0 0.64 0 1.28-0.06 1.91l0.06-0.08V796.53a35.52 35.52 0 0 1-35.52 35.52H99.53A35.52 35.52 0 0 1 64 796.53V-28a35.52 35.52 0 0 1 35.52-35.52l385.41 0.06a28.67 28.67 0 0 1 0.09 57.2z m-82.45 781.07h221V555.7h-221z"  horiz-adv-x="1024" />

    
    <glyph glyph-name="pandian" unicode="&#58908;" d="M392.88 567.22h225.33a28.69 28.69 0 0 1 28.69 28.69 28.69 28.69 0 0 1-28.69 28.69H392.88a28.69 28.69 0 0 1-28.69-28.69 28.69 28.69 0 0 1 28.69-28.69zM281.73 631.25a35.34 35.34 0 1 1 35.34-35.34 35.34 35.34 0 0 1-35.34 35.34zM392.88 426.11h225.33a28.69 28.69 0 0 1 28.69 28.69 28.69 28.69 0 0 1-28.69 28.69H392.88a28.69 28.69 0 0 1-28.69-28.69 28.69 28.69 0 0 1 28.69-28.69zM281.73 490.14a35.34 35.34 0 1 1 35.34-35.34 35.34 35.34 0 0 1-35.34 35.34zM392.88 285h177.45a28.69 28.69 0 0 1 0 57.39H392.88a28.69 28.69 0 0 1 0-57.39zM281.73 349a35.34 35.34 0 1 1 35.34-35.34A35.34 35.34 0 0 1 281.73 349zM476.85 201.28h-84a28.69 28.69 0 0 1-28.69-28.69 28.69 28.69 0 0 1 28.69-28.69h84a28.69 28.69 0 0 1 28.69 28.69 28.69 28.69 0 0 1-28.69 28.69zM281.73 207.93a35.34 35.34 0 1 1 35.34-35.34 35.34 35.34 0 0 1-35.34 35.34zM916.57 727.61a28.69 28.69 0 0 1-39.19-10.51L800 583V764.51a67.54 67.54 0 0 1-67.54 67.54H160.81a67.54 67.54 0 0 1-67.54-67.54V4a67.54 67.54 0 0 1 67.54-67.54h571.68A67.54 67.54 0 0 1 800 4V468.17l127.09 220.25a28.7 28.7 0 0 1-10.52 39.19zM742.64 20.32a26.49 26.49 0 0 0-26.49-26.49h-539a26.49 26.49 0 0 0-26.49 26.49V748.18a26.49 26.49 0 0 0 26.49 26.49h539a26.49 26.49 0 0 0 26.49-26.49v-264.65L550.5 150.47a28.69 28.69 0 1 1 49.7-28.68L742.64 368.7z"  horiz-adv-x="1024" />

    
    <glyph glyph-name="shangpinfenlei" unicode="&#58909;" d="M401.25 352.71H143.57A79.56 79.56 0 0 1 64 273.15v-257.71a79.56 79.56 0 0 1 79.55-79.56h257.7a79.56 79.56 0 0 1 79.55 79.56V273.15a79.56 79.56 0 0 1-79.55 79.56z m22.22-323.16a36.33 36.33 0 0 0-36.33-36.34H157.68a36.33 36.33 0 0 0-36.33 36.34V259a36.33 36.33 0 0 0 36.33 36.34h229.46A36.33 36.33 0 0 0 423.47 259zM880.63 352.71H622.95a79.56 79.56 0 0 1-79.55-79.56v-257.71a79.56 79.56 0 0 1 79.55-79.56h257.68a79.56 79.56 0 0 1 79.55 79.56V273.15a79.56 79.56 0 0 1-79.55 79.56z m22.22-323.16a36.33 36.33 0 0 0-36.33-36.34H637.06a36.33 36.33 0 0 0-36.33 36.34V259a36.33 36.33 0 0 0 36.33 36.34h229.46A36.33 36.33 0 0 0 902.85 259zM401.25 832.05H143.57A79.56 79.56 0 0 1 64 752.49v-257.71a79.56 79.56 0 0 1 79.55-79.56h257.7a79.56 79.56 0 0 1 79.55 79.56V752.49a79.56 79.56 0 0 1-79.55 79.56z m22.22-323.15a36.33 36.33 0 0 0-36.33-36.34H157.68a36.33 36.33 0 0 0-36.33 36.34V738.38a36.33 36.33 0 0 0 36.33 36.34h229.46a36.33 36.33 0 0 0 36.33-36.34zM880.63 832.05H622.95a79.56 79.56 0 0 1-79.55-79.56v-257.71a79.56 79.56 0 0 1 79.55-79.56h257.68a79.56 79.56 0 0 1 79.55 79.56V752.49a79.56 79.56 0 0 1-79.55 79.56z m22.22-323.15a36.33 36.33 0 0 0-36.33-36.34H637.06a36.33 36.33 0 0 0-36.33 36.34V738.38a36.33 36.33 0 0 0 36.33 36.34h229.46a36.33 36.33 0 0 0 36.33-36.34z"  horiz-adv-x="1024" />

    
    <glyph glyph-name="SKUshibiema" unicode="&#58910;" d="M866.68 54.25H157.52A93.61 93.61 0 0 0 64 147.76v473a93.61 93.61 0 0 0 93.51 93.51h709.17a93.61 93.61 0 0 0 93.51-93.51v-473a93.61 93.61 0 0 0-93.51-93.51zM157.52 657.17a36.47 36.47 0 0 1-36.43-36.43v-473a36.47 36.47 0 0 1 36.43-36.43h709.16a36.47 36.47 0 0 1 36.43 36.43v473a36.47 36.47 0 0 1-36.43 36.43zM402.22 396.42c-6.9 3.14-18.83 6.6-36.48 10.59-22 5-26.66 8.48-27.44 9.18a9.15 9.15 0 0 0-3.18 7.39c0 2.38 0.55 6 5.34 9.82 2.84 2.27 9 5 22 5 9.93 0 17.28-1.89 21.81-5.62 4.37-3.59 6.9-9 7.72-16.67l0.91-8.45 36.86 2.77-0.33 8.46a56.46 56.46 0 0 1-9.15 29.24c-5.74 8.74-14 15.41-24.45 19.83-9.94 4.19-21.46 6.32-34.23 6.32a83.89 83.89 0 0 1-32.19-6c-10.27-4.25-18.26-10.65-23.72-19a48.77 48.77 0 0 1-8.18-27 44.65 44.65 0 0 1 6.88-24.25c4.5-7.12 11.27-13.08 20.08-17.7 6.5-3.45 17.1-6.92 32.4-10.59 17.42-4.18 24.21-6.28 26.9-7.33 6.25-2.38 9.07-4.82 10.34-6.45a11.66 11.66 0 0 0 2.44-7.53 13.81 13.81 0 0 0-2.79-8.31c-1.94-2.69-5.18-4.93-9.62-6.65a49.4 49.4 0 0 0-17.83-2.94 51.45 51.45 0 0 0-20.62 3.93c-5.56 2.42-9.6 5.47-12 9.07-2.59 3.84-4.29 9-5 15.47l-1 8.46-36.34-3.18 0.22-8.27a61.9 61.9 0 0 1 10.07-32.83 58.91 58.91 0 0 1 26.48-21.95c10.67-4.6 23.87-6.93 39.23-6.93a80.93 80.93 0 0 1 33.94 7c10.47 4.8 18.66 11.68 24.35 20.47a51.59 51.59 0 0 1 8.59 28.41 47.85 47.85 0 0 1-8 27.26c-5.35 7.66-13.38 14.08-24.01 18.98zM694.55 471.6v-99.47c0-22.72-4.62-31-7.38-34-4.75-5.06-13.59-7.62-26.29-7.62-7.36 0-13.53 1.38-18.34 4.11a20.17 20.17 0 0 0-9.23 10.52c-1.46 3.72-3.2 11.42-3.2 27V471.6h-82l-65.62-65.53V471.6h-38.34v-174.71h38.36v59.54l15.69 15.3 52.65-74.83h49.37l-74.56 101.27L591.75 462v-90c0-18 2.18-32 6.68-42.77a52.2 52.2 0 0 1 24-26.37c10.62-5.75 24.18-8.67 40.31-8.67 16.75 0 30.67 3.39 41.36 10.07 10.93 6.83 18.64 15.9 22.89 27 4 10.4 5.94 23.74 5.94 40.78V471.6z"  horiz-adv-x="1024" />

    
    <glyph glyph-name="SNhaocaiji" unicode="&#58911;" d="M931.5 175.08a28.68 28.68 0 0 1-28.68-28.68v-113.74A38.9 38.9 0 0 0 864-6.19H750.23a28.68 28.68 0 0 1 0-57.36H864a96.32 96.32 0 0 1 96.22 96.22V146.4a28.68 28.68 0 0 1-28.72 28.68zM864 832.62H750.23a28.68 28.68 0 0 1 0-57.36H864a38.9 38.9 0 0 0 38.85-38.85v-113.75a28.68 28.68 0 1 1 57.36 0V736.4A96.33 96.33 0 0 1 864 832.62zM92.69 594a28.68 28.68 0 0 1 28.68 28.68V736.4a38.9 38.9 0 0 0 38.85 38.85H274a28.68 28.68 0 0 1 0 57.36H160.23A96.33 96.33 0 0 1 64 736.4v-113.74A28.68 28.68 0 0 1 92.69 594zM274-6.19H160.23a38.89 38.89 0 0 0-38.85 38.85V146.4a28.68 28.68 0 1 1-57.36 0v-113.74a96.32 96.32 0 0 1 96.22-96.22H274a28.68 28.68 0 0 1 0 57.36zM447.81 397.51c-11 5-30.4 10.61-59.3 17.15-35.31 8-46 14.16-49.35 17.16-5.37 4.81-8 10.8-8 18.31 0 8.81 3.9 16.22 11.91 22.64 8.35 6.69 22.38 10.08 41.73 10.08 18.48 0 32.44-3.77 41.49-11.19s14.16-18.23 15.77-33.15l0.69-6.37 46 3.46-0.25 6.38a86.26 86.26 0 0 1-14 44.68c-8.68 13.22-21.2 23.34-37.2 30.09-15.59 6.57-33.75 9.91-54 9.91-18.43 0-35.46-3.18-50.63-9.44-15.61-6.45-27.7-16.11-35.91-28.69a73.44 73.44 0 0 1-12.34-40.72 66.58 66.58 0 0 1 10.23-36.16c6.74-10.67 17-19.66 30.47-26.72 10.25-5.44 27.31-11 52.16-16.95 23.68-5.69 39.09-9.9 45.86-12.53 9.77-3.72 16.74-8.21 20.73-13.34a27.44 27.44 0 0 0 5.76-17.49 30.81 30.81 0 0 0-6.17-18.57c-4.16-5.77-10.77-10.44-19.65-13.89-9.32-3.62-20.31-5.45-32.65-5.45-13.92 0-26.57 2.43-37.59 7.23-10.69 4.65-18.61 10.71-23.53 18-5 7.48-8.32 17.36-9.73 29.35l-0.75 6.37-45.32-4 0.17-6.23c0.51-18.69 5.71-35.7 15.48-50.57s23.47-26.25 40.64-33.65c16.79-7.24 37.74-10.91 62.25-10.91 19.58 0 37.5 3.66 53.27 10.88 16.05 7.35 28.57 17.85 37.22 31.21a78.14 78.14 0 0 1 13 43c0 15.34-4 29.12-12 41s-20.16 21.61-36.46 29.12zM749.9 522.21h-46.49v-190.63L575.88 522.21h-45.73v-275.36h46.49V437.64l127.53-190.79h45.73V522.21z"  horiz-adv-x="1024" />

    
    <glyph glyph-name="chukufuhe" unicode="&#58912;" d="M580.56 390.75H461.93v-60.81h118.63zM461.93 211.07h118.63v60.81H461.93zM488 731.38L355.87 582.85c-18.15-20.44-18.15-53.43-0.18-73.93h106.24v-60.81h118.63v60.81h105.88c18 20.51 18 53.55-0.18 73.93L554.11 731.38c-18.21 20.5-47.81 20.5-66.11 0zM792.09 345.25C699.26 345.25 624 269.94 624 177s75.26-168.2 168.09-168.2 168.1 75.35 168.1 168.2-75.26 168.25-168.1 168.25z m0-295.62A127.43 127.43 0 1 0 919.44 177a127.39 127.39 0 0 0-127.35-127.38zM851.35 234.36l-88-88.65-34.56 38.88a12.78 12.78 0 0 1-17.73 0 12.64 12.64 0 0 1 0-17.88l46.55-46.9a12.43 12.43 0 0 1 9.75-3.63 12.24 12.24 0 0 1 9.73 3.63l96 96.67a12.66 12.66 0 0 1 0 17.88c-4.73 4.79-12.98 4.79-21.74 0zM592.33 66.48H155.72a34.16 34.16 0 0 0-34.11 34.13V667.88A34.16 34.16 0 0 0 155.72 702h120.89a28.82 28.82 0 0 1 0 57.63H155.72A91.84 91.84 0 0 1 64 667.88v-567.27a91.84 91.84 0 0 1 91.71-91.77h436.62a28.82 28.82 0 0 1 0 57.63zM868.48 759.65H743.77a28.82 28.82 0 0 1 0-57.63h124.71a34.16 34.16 0 0 0 34.11-34.13v-280a28.8 28.8 0 1 1 57.6 0v280a91.84 91.84 0 0 1-91.71 91.76z"  horiz-adv-x="1024" />

    
    <glyph glyph-name="cangchuyingyong" unicode="&#58913;" d="M747.08 406.55A212.73 212.73 0 1 1 534.27 619.3c0-45.56-0.34-182.31-0.35-183.68l-0.07-27.62 28.06-0.26c1.29 0.02 129.76-1.19 185.17-1.19zM590.78 619.3c0 86.67 70.12 157.18 156.3 157.18S903.39 706 903.39 619.3s-70.12-157.18-156.31-157.18c-39.22 0-115.39 0.61-156.58 1 0.1 42.66 0.28 123.22 0.28 156.18zM277.06 361.89a212.71 212.71 0 1 1 212.82-212.75c0 45.56 0.34 182.31 0.34 183.68l0.07 27.59-28.06 0.26c-1.28 0.02-129.75 1.22-185.17 1.22z m156.3-212.75c0-86.64-70.12-157.13-156.3-157.13S120.81 62.5 120.81 149.14s70.1 157.18 156.25 157.18c39.22 0 115.4-0.61 156.58-1-0.1-42.66-0.27-123.22-0.27-156.18zM489.88 619.3A212.81 212.81 0 0 1 126.4 769.54a212.74 212.74 0 0 1 150.66-363c55.42 0 183.88 1.2 185.18 1.21l28.06 0.26-0.07 27.59c-0.01 1.4-0.35 138.15-0.35 183.7zM277.06 462.12c-86.16 0-156.25 70.51-156.25 157.18s70.1 157.18 156.25 157.18S433.37 706 433.37 619.3c0-33 0.18-113.52 0.28-156.22-41.19-0.35-117.37-0.96-156.59-0.96zM747.08 361.89c-55.41 0-183.88-1.2-185.18-1.21l-28.06-0.26 0.07-27.59c0-1.38 0.35-138.13 0.35-183.68a212.84 212.84 0 1 1 212.82 212.74z m0-369.88c-86.19 0-156.3 70.49-156.3 157.13 0 33-0.18 113.52-0.28 156.22 41.19 0.35 117.36 1 156.58 1 86.19 0 156.31-70.51 156.31-157.18S833.27-8 747.08-8z"  horiz-adv-x="1024" />

    
    <glyph glyph-name="caituiruku" unicode="&#58914;" d="M622.61 516.63h25.74v-50.26h-25.74zM672.93 516.63h25.74v-50.26h-25.74zM541.28 561.56l-62.88-56c-8.68-7.74-8.68-20.28 0-28l62.88-56c8.63-7.69 22.62-7.69 31.3-0.08v44.89h25.74v50.26h-25.74v45a24.21 24.21 0 0 1-31.3-0.07zM896.08 183.68H390.35c-12.56 0-45.91 0-53.21 59-2.17 17.51-20.43 152.42-38.08 282.88-13.79 101.91-26.82 198.16-29.56 219.19-4.54 34.8-19 55-30.28 65.89-14.21 13.64-32.82 21.46-51 21.46h-86a28.48 28.48 0 0 1 0-57h86c6.89 0 20.95-7.89 24.84-37.75 2.76-21.16 15.8-117.48 29.6-219.46 16.81-124.24 35.87-265.05 38-282.24 3.78-30.55 13.65-55.42 29.33-73.91 19.42-22.9 47.22-35 80.41-35h505.68a28.48 28.48 0 0 1 0 57zM929.49 712.34c-14.24 16.4-34.11 25.07-57.46 25.07H317.75a28.48 28.48 0 0 1 0-57H872c8.71 0 12.41-3.11 14.44-5.45 6.09-7 8.46-21.34 6.19-37.37C887 597.86 858.42 421 853.26 389.73c-5.26-31.86-24.35-49-58.34-52.29-58.11-5.68-387.34-33.15-390.66-33.43a28.48 28.48 0 0 1 2.34-56.86c0.79 0 1.6 0 2.4 0.1 3.32 0.28 333 27.79 391.46 33.5 59.77 5.84 99.5 42.17 109 99.69 4.54 27.56 33.63 207.1 39.6 249.18 4.73 33.38-2.22 62.73-19.57 82.72zM410.1 116.3a89.93 89.93 0 1 1 89.9-89.93 90 90 0 0 1-89.9 89.93z m0-122.9a33 33 0 1 0 33 33 33 33 0 0 0-33-33zM825.89 116.3a89.93 89.93 0 1 1 89.93-89.93 90 90 0 0 1-89.93 89.93z m0-122.9a33 33 0 1 0 33 33 33 33 0 0 0-33-33z"  horiz-adv-x="1024" />

    
    <glyph glyph-name="dabaocaiji" unicode="&#58915;" d="M940 704.42a83.38 83.38 0 0 1-61.2 26.75H634.16a28.68 28.68 0 0 1-27.87-21.94s-18.69-87.5-20.2-93-4.74-8.82-13.24-8.82H145.47a83.65 83.65 0 0 1-62-27.56c-14.41-16-21.19-36.08-19.07-56.61q0-0.26 0.06-0.52L114 115.5v-0.21c4.82-37.3 37.16-77.56 81-77.56h400.46a28.68 28.68 0 0 1 0 57.35H195c-11.89 0-22.62 16.37-24.1 27.46l-49.47 406.74c-0.47 5.26 2.24 9.49 4.62 12.12a26.93 26.93 0 0 0 19.42 8.6h458.78a28.68 28.68 0 0 1 27.88 22l22 93a12.05 12.05 0 0 0 11.47 8.82h213.2a26.23 26.23 0 0 0 19-8.25 17.47 17.47 0 0 0 5-13.15l-22.69-243.13a28.68 28.68 0 1 1 57.11-5.29l22.69 243.31v0.31c1.74 20.79-5.34 40.97-19.91 56.8zM791.81 372.19c-92.41 0-167.33-75-167.33-167.43s74.92-167.43 167.33-167.43 167.33 75 167.33 167.43-74.92 167.43-167.33 167.43z m0-294.27a126.84 126.84 0 1 0 126.77 126.84 126.8 126.8 0 0 0-126.77-126.85zM850.8 261.81l-87.57-88.24-34.4 38.7a12.72 12.72 0 0 1-17.65 0 12.58 12.58 0 0 1 0-17.8l46.34-46.69a12.37 12.37 0 0 1 9.71-3.61 12.19 12.19 0 0 1 9.69 3.61L872.45 244a12.6 12.6 0 0 1 0 17.8c-4.72 4.77-12.93 4.77-21.65 0.01zM142.9 673.82h359.4a28.68 28.68 0 1 1 0 57.35H142.9a28.68 28.68 0 0 1 0-57.35z"  horiz-adv-x="1024" />

    
    <glyph glyph-name="kuacangyiku" unicode="&#58916;" d="M533.56 102.1v-72.51A28.47 28.47 0 0 1 562 1.12h369.72a28.47 28.47 0 1 1 0 56.94H590.5v44a28.47 28.47 0 1 1-56.94 0zM562 637.92a28.47 28.47 0 0 1 28.47 28.47v44h341.25a28.47 28.47 0 1 1 0 56.94H562a28.47 28.47 0 0 1-28.47-28.47v-72.51A28.47 28.47 0 0 1 562 637.92zM92.48 1.12h369.69a28.47 28.47 0 0 1 28.47 28.47V102.1a28.47 28.47 0 1 1-56.94 0v-44H92.48a28.47 28.47 0 1 1 0-56.94zM92.48 710.43H433.7v-44a28.47 28.47 0 1 1 56.94 0V738.9a28.47 28.47 0 0 1-28.47 28.47H92.48a28.47 28.47 0 0 1 0-56.94zM808.88 454.37v144.4a59.56 59.56 0 0 1-59.49 59.49H664a59.56 59.56 0 0 1-59.49-59.49v-144.4a59.56 59.56 0 0 1 59.49-59.5h85.34a59.56 59.56 0 0 1 59.54 59.5z m-56.94 0a2.56 2.56 0 0 0-2.55-2.55H664a2.56 2.56 0 0 0-2.55 2.55v144.4a2.56 2.56 0 0 0 2.55 2.55h85.34a2.56 2.56 0 0 0 2.55-2.55zM461.86 555.67h29.81v-58.2h-29.81zM520.15 555.67h29.81v-58.2h-29.81zM367.67 607.61l-72.82-64.84c-10.05-9-10.05-23.48 0-32.42l72.82-64.84c10-8.9 26.2-8.9 36.25-0.09v51.96h29.81v58.2h-29.81V607.7c-10.05 8.82-26.22 8.82-36.25-0.09zM234.75 324.85v-144.4A59.56 59.56 0 0 1 294.24 121h85.34a59.56 59.56 0 0 1 59.49 59.49V324.85a59.56 59.56 0 0 1-59.49 59.49h-85.34a59.56 59.56 0 0 1-59.49-59.49z m56.94 0a2.56 2.56 0 0 0 2.55 2.55h85.34a2.56 2.56 0 0 0 2.55-2.55v-144.4a2.56 2.56 0 0 0-2.55-2.55h-85.34a2.56 2.56 0 0 0-2.55 2.55zM551.95 281.75h29.81v-58.2h-29.81zM493.67 281.75h29.81v-58.2h-29.81zM639.71 171.52c10.05-8.82 26.25-8.82 36.25 0.09l72.82 64.84c10.05 8.94 10.05 23.46 0 32.42L676 333.7c-10 8.91-26.2 8.91-36.25 0.09v-52.12H609.9v-58.2h29.81v-51.94z"  horiz-adv-x="1024" />

    
    <glyph glyph-name="lihuoshangjia" unicode="&#58917;" d="M300.72 164.33a29.81 29.81 0 1 1 57.58 15.43L204.85 752.43a29.81 29.81 0 0 1-13.85 18.1L108.73 818a29.81 29.81 0 0 1-29.81-51.62l71.54-41.31zM917.71 209.08L502.26 97.76a29.81 29.81 0 0 1 15.43-57.58L933.13 151.5a29.81 29.81 0 0 1-15.43 57.58zM348.74 130.43a93.56 93.56 0 1 1 114.59-66.16 93.67 93.67 0 0 1-114.59 66.16z m33.09-123.5a34.3 34.3 0 1 0 24.25 42 34.34 34.34 0 0 0-24.25-42zM785.78 793.57l-173.55-46.5-163.75-43.88-173.55-46.5a29.81 29.81 0 0 1-21.08-36.5l125.87-469.76a111.07 111.07 0 0 0 86.91-51.62l471.46 126.33a29.81 29.81 0 0 1 21.08 36.5L822.28 772.49a29.81 29.81 0 0 1-36.5 21.08zM492.7 653.32l106.16 28.45 28.45-106.17-106.16-28.44zM893.87 275L440.6 153.55 319.15 606.82l116 31.07 36.16-135a29.81 29.81 0 0 1 36.5-21.08l163.74 43.87a29.81 29.81 0 0 1 21.08 36.5l-36.16 135 116 31.07z"  horiz-adv-x="1024" />

    
    <glyph glyph-name="ercifenjian" unicode="&#58918;" d="M788.13 320.72A30.72 30.72 0 0 1 757.4 290v-129.66a21.14 21.14 0 0 0-21.11-21.11H606.63a30.72 30.72 0 0 1 0-61.44h129.66a82.65 82.65 0 0 1 82.56 82.56V290a30.72 30.72 0 0 1-30.72 30.72zM736.29 691.28H606.63a30.72 30.72 0 0 1 0-61.44h129.66a21.14 21.14 0 0 0 21.11-21.11v-129.67a30.72 30.72 0 1 1 61.44 0V608.72a82.65 82.65 0 0 1-82.55 82.56zM236.07 448.34a30.72 30.72 0 0 1 30.72 30.72V608.72a21.14 21.14 0 0 0 21.11 21.11h129.67a30.72 30.72 0 1 1 0 61.44H287.91a82.65 82.65 0 0 1-82.56-82.56v-129.65a30.72 30.72 0 0 1 30.72-30.72zM448.29 108.5a30.72 30.72 0 0 1-30.72 30.72H287.91a21.14 21.14 0 0 0-21.11 21.11V290a30.72 30.72 0 0 1-61.44 0v-129.66a82.65 82.65 0 0 1 82.56-82.56h129.65a30.72 30.72 0 0 1 30.72 30.72zM367.45 503.24v-55c0-21.37 4.58-25.95 25.95-25.95h54.95c21.37 0 25.94 4.58 25.94 25.95v56.52c-1.53 19.84-6.1 24.42-25.94 24.42h-54.96c-21.39 0.01-25.94-4.57-25.94-25.94zM575.86 422.34h54.95c21.37 0 25.94 4.58 25.94 25.95v56.47c-1.53 19.84-6.1 24.42-25.94 24.42h-54.95c-21.37 0-25.95-4.58-25.95-25.95v-55c0-21.31 4.58-25.89 25.95-25.89zM448.34 346.72h-54.95c-21.37 0-25.95-4.58-25.95-25.95v-55c0-21.37 4.58-25.95 25.95-25.95h54.95c21.37 0 25.94 4.58 25.94 25.95V322.3c-1.52 19.84-6.1 24.42-25.94 24.42zM575.86 239.87h54.95c21.37 0 25.94 4.58 25.94 25.95V322.3c-1.53 19.84-6.1 24.42-25.94 24.42h-54.95c-21.37 0-25.95-4.58-25.95-25.95v-55c0-21.32 4.58-25.9 25.95-25.9zM774.82 410.86h27.04v-52.79h-27.04zM721.95 410.86h27.04v-52.79h-27.04zM953.35 399.25l-66.05 58.81c-9.09 8.08-23.76 8.08-32.88 0.08v-47.27h-27v-52.79h27V311c9.12-8 23.81-8 32.88 0.08l66.05 58.81c9.12 8.06 9.12 21.23 0 29.36zM222.34 410.86h27.04v-52.79h-27.04zM275.2 410.86h27.04v-52.79H275.2zM169.78 458.14c-9.12 8-23.79 8-32.88-0.08l-66.05-58.81c-9.12-8.13-9.12-21.3 0-29.41L136.9 311c9.1-8 23.76-8 32.88 0v47.07h27v52.79h-27zM485.62 121.81h52.79v-27.04h-52.79zM485.62 174.67h52.79v-27.04h-52.79zM538.42 42.21v27h-52.8v-27h-47.11c-8-9.12-8-23.81 0.08-32.88l58.81-66.05c8.1-9.12 21.28-9.12 29.41 0l58.81 66.05c8.08 9.09 8.08 23.76 0.08 32.88z"  horiz-adv-x="1024" />

    
    <glyph glyph-name="qitachuku" unicode="&#58919;" d="M868.48 759.56H743.77a28.81 28.81 0 0 1 0-57.62h124.71a34.16 34.16 0 0 0 34.11-34.13v-567.13a34.16 34.16 0 0 0-34.11-34.13H155.72a34.16 34.16 0 0 0-34.11 34.13V667.82a34.16 34.16 0 0 0 34.11 34.13h120.89a28.81 28.81 0 0 1 0 57.62H155.72A91.83 91.83 0 0 1 64 667.82v-567.14a91.83 91.83 0 0 1 91.71-91.75h712.77a91.83 91.83 0 0 1 91.71 91.75V667.82a91.83 91.83 0 0 1-91.71 91.74zM571.32 395.21H453.23v-60.52h118.1zM453.23 216.39h118.1v60.52h-118.1zM453.23 512.82v-60.52h118.1v60.52h105.4c17.89 20.41 17.89 53.29-0.18 73.58L545 734.21c-18.13 20.41-47.59 20.41-65.78 0L347.66 586.4c-18.07-20.34-18.07-53.17-0.18-73.58z"  horiz-adv-x="1024" />

    
    <glyph glyph-name="tiaomacaiji" unicode="&#58920;" d="M240.3 502.66h25.94v-236.83H240.3zM305.02 502.66h25.95v-236.83h-25.95zM369.74 502.66h25.94v-236.83h-25.94zM434.47 502.66h25.94v-236.83h-25.94zM499.19 502.66h25.95v-236.83h-25.95zM563.92 502.66h25.94v-236.83h-25.94zM628.64 502.66h25.94v-236.83h-25.94zM693.23 502.66h25.94v-236.83h-25.94zM757.96 502.66h25.95v-236.83h-25.95zM931.24 174.93a28.66 28.66 0 0 1-28.66-28.66V32.6a38.87 38.87 0 0 0-38.83-38.83H750.08a28.66 28.66 0 0 1 0-57.33h113.67a96.26 96.26 0 0 1 96.16 96.16V146.27a28.66 28.66 0 0 1-28.67 28.66zM863.75 832.05H750.08a28.66 28.66 0 0 1 0-57.33h113.67a38.87 38.87 0 0 0 38.83-38.83v-113.66a28.66 28.66 0 1 1 57.33 0V735.9a96.26 96.26 0 0 1-96.16 96.15zM274.12 832.05H160.45a96.26 96.26 0 0 1-96.16-96.15v-113.67a28.66 28.66 0 0 1 57.33 0V735.9a38.87 38.87 0 0 0 38.83 38.83h113.67a28.66 28.66 0 1 1 0 57.33zM274.12-6.23H160.45a38.87 38.87 0 0 0-38.83 38.83V146.27a28.66 28.66 0 0 1-57.33 0V32.6a96.26 96.26 0 0 1 96.16-96.16h113.67a28.66 28.66 0 1 1 0 57.33z"  horiz-adv-x="1024" />

    
    <glyph glyph-name="xiaotuishouhuo-" unicode="&#58881;" d="M503.66 211.7h-34.12a19.85 19.85 0 1 1 0-39.71h34.12a110.85 110.85 0 0 1 0 221.7H468v30.8a17.5 17.5 0 0 1-22.63-0.06L399.93 384a13.23 13.23 0 0 1 0-20.24l45.46-40.48a17.5 17.5 0 0 1 22.63-0.05V354h35.64a71.14 71.14 0 0 0 0-142.28zM792.8 315.74a167.39 167.39 0 1 1 167.39-167.39A167.39 167.39 0 0 1 792.8 315.74z m0-294.21a126.81 126.81 0 1 0 126.81 126.82A126.81 126.81 0 0 0 792.8 21.53zM851.8 205.39l-87.6-88.22-34.41 38.69a12.73 12.73 0 0 1-17.65 0 12.57 12.57 0 0 1 0-17.79l46.36-46.68a12.38 12.38 0 0 1 9.71-3.61 12.2 12.2 0 0 1 9.69 3.61l95.56 96.21a12.59 12.59 0 0 1 0 17.79c-4.72 4.76-12.93 4.76-21.66 0zM588.15 38.6H203.68A28.82 28.82 0 0 0 175 64.32l-43.7 403.75A28.82 28.82 0 0 0 160 500h704.22a28.82 28.82 0 0 0 28.65-31.92l-10.63-98.19A28.82 28.82 0 0 1 910.9 338a28.82 28.82 0 0 1 28.65 25.72l20.3 187.52a57.64 57.64 0 0 1-15.91 46.32L776.8 770a57.64 57.64 0 0 1-41.4 17.53H288.8A57.64 57.64 0 0 1 247.4 770L80.26 597.52a57.64 57.64 0 0 1-15.91-46.32l56.15-518.8a57.64 57.64 0 0 1 57.31-51.4h410.34a28.82 28.82 0 1 1 0 57.64zM121.66 557.4l158.8 150.47a28.82 28.82 0 0 0 19.82 7.9h423.63a28.82 28.82 0 0 0 19.82-7.9L902.54 557.4H121.66z"  horiz-adv-x="1024" />

    
    <glyph glyph-name="chushizupin" unicode="&#58882;" d="M900.11 521.49A420.76 420.76 0 0 1 513.9 778.67V825.49c-10 8.77-26.11 8.77-36-0.09l-72.41-64.47c-10-8.89-10-23.32 0-32.24l72.41-64.47c10-8.86 26-8.86 36-0.09V718c197.9-1 358.61-162.27 358.61-360.4 0-198.73-161.68-360.41-360.41-360.41S151.69 158.83 151.69 357.56A357.37 357.37 0 0 0 223.1 573a30.36 30.36 0 0 1-48.65 36.32 421 421 0 1 1 725.66-87.78zM414.26 237.63h195.68a39.44 39.44 0 0 1 39.44 39.44V472.75a39.44 39.44 0 0 1-39.44 39.44H414.26a39.44 39.44 0 0 1-39.44-39.44v-195.68a39.44 39.44 0 0 1 39.44-39.44z m21.27 195a18.89 18.89 0 0 0 18.89 18.89h115.36a18.89 18.89 0 0 0 18.89-18.89v-115.4a18.89 18.89 0 0 0-18.89-18.89H454.42a18.89 18.89 0 0 0-18.89 18.89z"  horiz-adv-x="1024" />

    
    <glyph glyph-name="chaijiefenzu" unicode="&#58883;" d="M153.37 764.44A22.36 22.36 0 0 1 131 742.09v-715.16a22.36 22.36 0 0 1 22.37-22.35H869.3a22.37 22.37 0 0 1 22.37 22.35V272.77a22.37 22.37 0 0 1-22.37 22.35H489a67.08 67.08 0 0 0-67.12 67V742.09a22.36 22.36 0 0 1-22.37 22.35z m0 67h246.1A89.45 89.45 0 0 0 489 742.09v-379.93h380.3a89.44 89.44 0 0 0 89.49-89.4v-245.83a89.44 89.44 0 0 0-89.49-89.39H153.37a89.44 89.44 0 0 0-89.49 89.39V742.09a89.44 89.44 0 0 0 89.49 89.4zM958.79 798v-335.27a33.6 33.6 0 0 0-33.56-33.52H589.64a33.61 33.61 0 0 0-33.56 33.52V798a33.56 33.56 0 0 0 33.56 33.52h335.59A33.54 33.54 0 0 0 958.79 798z m-67.12-33.53H623.2v-268.22h268.48z m0 0"  horiz-adv-x="1024" />

    
    <glyph glyph-name="chaixiang" unicode="&#58884;" d="M512.1 634.32a16.23 16.23 0 0 1 16.23 16.23V774a16.23 16.23 0 1 1-32.46 0v-123.45a16.23 16.23 0 0 1 16.23-16.23zM414.39 624.31a16.23 16.23 0 0 1 26 19.46L360.3 750.68a16.23 16.23 0 1 1-26-19.46zM587.09 621.05a16.23 16.23 0 0 1 22.72 3.26l80.07 106.9a16.23 16.23 0 1 1-26 19.46l-80.07-106.9a16.23 16.23 0 0 1 3.28-22.72zM951.79 679.5a28.65 28.65 0 0 1-40.52 0L733 501.24H291.18L112.92 679.5A28.65 28.65 0 0 1 72.4 639l178.35-178.37v-455.92a26.43 26.43 0 0 1 26.43-26.43h470.1a26.43 26.43 0 0 1 26.43 26.43V460.89L951.79 639a28.65 28.65 0 0 1 0 40.5zM716.41 62A26.43 26.43 0 0 0 690 35.58H334.48A26.43 26.43 0 0 0 308.05 62V417.51a26.43 26.43 0 0 0 26.43 26.43H690a26.43 26.43 0 0 0 26.43-26.43z"  horiz-adv-x="1024" />

    
    <glyph glyph-name="chengzhong" unicode="&#58885;" d="M709.76 670.29a657 657 0 0 1-395.09 0 80 80 0 0 1-50.31-45.76 82.62 82.62 0 0 1 1.8-68.16l63.16-130.54c13.65-28.29 41.49-45.41 71.33-45.41a78.89 78.89 0 0 1 17.58 2l0.39 0.09a395.35 395.35 0 0 0 93.47 11.11h1.12l37.28-2.23a393.94 393.94 0 0 0 55.07-8.88l0.31-0.07a78.84 78.84 0 0 1 17.82-2c29.83 0 57.59 17.12 71.19 45.47L758 556.32a82.66 82.66 0 0 1 1.93 68.1 80 80 0 0 1-50.17 45.87z m-3.32-88.88l-63.21-130.65v-0.1c-4.56-9.52-14.52-14.62-24.25-12.42a444.19 444.19 0 0 1-59.53 9.85l67 116a28.66 28.66 0 0 1-49.65 28.65L494.65 450.6a450.62 450.62 0 0 1-89.36-12.35c-9.75-2.15-19.74 3-24.35 12.51l-63.19 130.61a25.38 25.38 0 0 0-0.55 20.95 22.86 22.86 0 0 0 14.29 13.22l0.28 0.09a597.59 597.59 0 0 0 360.82 0l0.19-0.06A22.88 22.88 0 0 0 707 602.32a25.37 25.37 0 0 0-0.56-20.91zM874.33 832.05H149.87A85.83 85.83 0 0 1 64 746.25v-724a85.83 85.83 0 0 1 85.85-85.8h724.48a85.83 85.83 0 0 1 85.85 85.8v724a85.83 85.83 0 0 1-85.85 85.8z m28.52-788.65a49.67 49.67 0 0 0-49.69-49.66H171a49.67 49.67 0 0 0-49.69 49.66V725.1A49.67 49.67 0 0 0 171 774.76h682.16a49.67 49.67 0 0 0 49.69-49.66z"  horiz-adv-x="1024" />

    
    <glyph glyph-name="chukuchaxun" unicode="&#58886;" d="M334.7 558.55h349a28.7 28.7 0 0 1 0 57.39h-349a28.7 28.7 0 1 1 0-57.39zM306 474.82l406.39 0 0-57.39-406.39 0 0 57.39ZM579.95 305a28.7 28.7 0 0 1-28.7 28.7H334.7A28.7 28.7 0 0 1 306 305a28.7 28.7 0 0 1 28.7-28.7h216.55a28.7 28.7 0 0 1 28.7 28.7zM334.7 192.56a28.7 28.7 0 0 1-28.7-28.7 28.7 28.7 0 0 1 28.7-28.7h110.59a28.7 28.7 0 0 1 28.7 28.7 28.7 28.7 0 0 1-28.7 28.7zM698 271.45a167.5 167.5 0 1 1 167.5-167.5A167.5 167.5 0 0 1 698 271.45zM698-23a126.9 126.9 0 1 0 126.9 126.9A126.9 126.9 0 0 0 698-23zM798 832.18H226.2a67.55 67.55 0 0 1-67.55-67.55V4a67.55 67.55 0 0 1 67.55-67.55h268.61a28.7 28.7 0 1 1 0 57.39H242.54A26.49 26.49 0 0 0 216 20.33v728a26.49 26.49 0 0 0 26.49 26.49h539.17a26.49 26.49 0 0 0 26.49-26.49v-435.96a28.7 28.7 0 1 1 57.39 0V764.63A67.55 67.55 0 0 1 798 832.18zM759.36 100.05c-7.71 0-12.69-4.74-12.69-12.09v-35.26h-36.54v48.07h37.56c6.84-0.26 12.22 1.42 16 5 3.56 3.42 5.37 8.25 5.37 14.36v39.61c-0.78 7-5.86 11.35-13.26 11.35-7.8-0.01-12.8-4.76-12.8-12.09v-32.84h-32.87v44l-1.17 1.7c-3.53 5.12-7.56 7.72-12 7.72h-0.26c-4.45-0.1-8.35-2.78-11.59-8l-1-1.61v-43.84H653v36.72l-1.17 1.7c-3.53 5.12-7.61 7.72-12.13 7.72-4.53 0-8.61-2.6-12.13-7.72l-1.17-1.7v-42.73c0-12.13 7.7-19.37 20.58-19.37h37.09v-48.05H650V88.66c-0.72 7.17-5.43 11.88-12.6 12.6l-0.63 0.06-0.63-0.06c-7.83-0.72-12.7-5.8-12.7-13.27v-41.89c0-10.77 6.66-17.56 17.81-18.15h109c20.22 0 22.41 14 22.41 20v40.79c-0.83 6.96-5.91 11.31-13.3 11.31z"  horiz-adv-x="1024" />

    
    <glyph glyph-name="chuku" unicode="&#58887;" d="M850.7 310.17l-0.48 0.51c-4.11 4.22-13.73 14.1-30.82 14.1-11.16 0-22.46-4.9-31-13.43s-13.4-19.84-13.4-31v-31.63c-30.71-4.14-57.7-12.9-80.45-26.15a164.36 164.36 0 0 1-58.74-57.83c-25.3-42-28.65-88.11-30.26-110.27-0.24-3.32-0.45-6.19-0.66-8.06a24.21 24.21 0 0 1-0.16-2.75c0-24.19 21.63-41 41-41 15.06 0 26.65 7.45 34.47 22.16 26.06 41.28 55.89 62.49 94.67 66.6v-39c0-23.4 17.66-41 41.09-41 16.5 0 25.88 9.14 30.39 13.53l0.07 0.07q0.56 0.55 1.09 1.14L940 128.7c7.73 7.64 20 20.2 20.14 39.9a55.21 55.21 0 0 1-17 40.91z m54.71-147.42l-1-1-81-89.86v44.26a24.28 24.28 0 0 1-23 24.24c-35.61 1.9-67.55-5.38-95-21.62-17.91-10.61-34.09-25-49-43.56 8.74 60.08 37.78 121 144.14 127.22a24.28 24.28 0 0 1 22.86 24.24V268l84.53-92q0.68-0.74 1.42-1.43a6.66 6.66 0 0 0 2.15-5c-0.89-1.68-4.37-5.11-6.1-6.82zM538.13 40.38h-52.7c-20.49 0-24.89-4.39-24.89-24.88v-54.16c0-20.5 4.39-24.89 24.89-24.89h52.7c20.5 0 24.89 4.39 24.89 24.89v54.15c-1.46 20.51-5.85 24.89-24.89 24.89zM362.48 40.38h-52.7c-20.49 0-24.89-4.39-24.89-24.88v-54.16c0-20.5 4.39-24.89 24.89-24.89h52.7c20.49 0 24.88 4.39 24.88 24.89v54.15c-1.47 20.51-5.86 24.89-24.88 24.89zM362.48 228.1h-52.7c-20.49 0-24.89-4.39-24.89-24.88v-52.7c0-20.49 4.39-24.88 24.89-24.88h52.7c20.49 0 24.88 4.39 24.88 24.88v54.15c-1.47 19.04-5.86 23.43-24.88 23.43zM485.43 405.22c-20.49 0-24.88-4.39-24.88-24.88v-54.16c0-20.5 4.39-24.89 24.88-24.89h52.7c20.49 0 24.88 4.39 24.88 24.89v54.16c-1.46 20.49-5.85 24.88-24.88 24.88zM538.13 228.1h-52.7c-20.49 0-24.89-4.39-24.89-24.88v-52.7c0-20.49 4.39-24.88 24.89-24.88h52.7c20.5 0 24.89 4.39 24.89 24.88v54.15c-1.46 19.04-5.85 23.43-24.89 23.43zM362.48 405.22h-52.7c-20.49 0-24.89-4.39-24.89-24.88v-54.16c0-20.49 4.39-24.88 24.89-24.88h52.7c20.49 0 24.88 4.39 24.88 24.88v54.16c-1.47 21.95-5.86 24.88-24.88 24.88zM914.29 468.07A28.7 28.7 0 1 1 948.68 514l-419 313.65a28.7 28.7 0 0 1-34.37 0L75.53 514a28.7 28.7 0 1 1 34.35-46l40.54 30.3v-533.17a28.69 28.69 0 0 1 57.38 0v576.1l304.65 227.63z"  horiz-adv-x="1024" />

    
    <glyph glyph-name="daohuoqingdian" unicode="&#58888;" d="M798 832.18H226.2a67.55 67.55 0 0 1-67.55-67.55V4a67.55 67.55 0 0 1 67.55-67.55H798A67.55 67.55 0 0 1 865.55 4V764.63A67.55 67.55 0 0 1 798 832.18z m10.16-811.85a26.49 26.49 0 0 0-26.49-26.49H242.54A26.49 26.49 0 0 0 216 20.33v728a26.49 26.49 0 0 0 26.49 26.49h539.17a26.49 26.49 0 0 0 26.49-26.49zM347.15 178.27m-35.35 0a35.35 35.35 0 1 1 70.7 0 35.35 35.35 0 1 1-70.7 0ZM429.62 206.96l282.77 0 0-57.39-282.77 0 0 57.39ZM683.7 597.83H458.32a28.7 28.7 0 1 1 0-57.39H683.7a28.7 28.7 0 0 1 0 57.39zM336.49 548.11a4.48 4.48 0 0 1 3.51-1.31 4.42 4.42 0 0 1 3.51 1.31L378.14 583a4.56 4.56 0 0 1 0 6.45c-1.71 1.73-4.69 1.73-7.85 0l-31.74-32-12.47 14a4.61 4.61 0 0 1-6.4 0 4.55 4.55 0 0 1 0-6.45zM395.27 625.7H299a8.83 8.83 0 0 1-8.83-8.83v-96.25a8.83 8.83 0 0 1 8.83-8.82h96.25a8.83 8.83 0 0 1 8.83 8.83v96.24a8.83 8.83 0 0 1-8.81 8.83z m-8.83-96.25h-78.58V608h78.59zM429.62 402.4l282.77 0 0-57.39-282.77 0 0 57.39ZM336.49 353.07a4.48 4.48 0 0 1 3.52-1.31 4.42 4.42 0 0 1 3.51 1.31l34.62 34.85a4.56 4.56 0 0 1 0 6.45c-1.71 1.73-4.69 1.73-7.85 0l-31.74-32-12.47 14a4.61 4.61 0 0 1-6.4 0 4.55 4.55 0 0 1 0-6.45zM395.27 430.65H299a8.83 8.83 0 0 1-8.83-8.83v-96.25a8.83 8.83 0 0 1 8.83-8.83h96.25a8.83 8.83 0 0 1 8.83 8.83v96.25a8.83 8.83 0 0 1-8.81 8.83z m-8.83-96.25h-78.58V413h78.59z"  horiz-adv-x="1024" />

    
    <glyph glyph-name="kucunchaxun" unicode="&#58889;" d="M458.32 567.3H683.7a28.7 28.7 0 0 1 0 57.39H458.32a28.7 28.7 0 1 1 0-57.39zM347.15 596m-35.35 0a35.35 35.35 0 1 1 70.7 0 35.35 35.35 0 1 1-70.7 0ZM429.62 483.57l282.77 0 0-57.39-282.77 0 0 57.39ZM347.15 454.87m-35.35 0a35.35 35.35 0 1 1 70.7 0 35.35 35.35 0 1 1-70.7 0ZM347.15 313.75m-35.35 0a35.35 35.35 0 1 1 70.7 0 35.35 35.35 0 1 1-70.7 0ZM429.62 342.44l185.64 0 0-57.39-185.64 0 0 57.39ZM458.32 201.32a28.7 28.7 0 0 1 0-57.39h31.12a28.7 28.7 0 0 1 0 57.39zM347.15 172.62m-35.35 0a35.35 35.35 0 1 1 70.7 0 35.35 35.35 0 1 1-70.7 0ZM698 271.45a167.5 167.5 0 1 1 167.5-167.5A167.5 167.5 0 0 1 698 271.45zM698-23a126.9 126.9 0 1 0 126.9 126.9A126.9 126.9 0 0 0 698-23zM731 85.24A58.95 58.95 0 1 1 716.75 71L755 32.71A10.09 10.09 0 0 1 769.28 47z m-19.55 7.85a9.69 9.69 0 0 1-2.57-2.57 38.76 38.76 0 1 0 2.57 2.57zM798 832.18H226.2a67.55 67.55 0 0 1-67.55-67.55V4a67.55 67.55 0 0 1 67.55-67.55h268.61a28.7 28.7 0 1 1 0 57.39H242.54A26.49 26.49 0 0 0 216 20.33v728a26.49 26.49 0 0 0 26.49 26.49h539.17a26.49 26.49 0 0 0 26.49-26.49v-435.96a28.7 28.7 0 1 1 57.39 0V764.63A67.55 67.55 0 0 1 798 832.18z"  horiz-adv-x="1024" />

    
    <glyph glyph-name="kucun" unicode="&#58890;" d="M538.13 40.38h-52.7c-20.49 0-24.89-4.39-24.89-24.88v-54.16c0-20.5 4.39-24.89 24.89-24.89h52.7c20.5 0 24.89 4.39 24.89 24.89v54.15c-1.46 20.51-5.85 24.89-24.89 24.89zM362.48 40.38h-52.7c-20.49 0-24.89-4.39-24.89-24.88v-54.16c0-20.5 4.39-24.89 24.89-24.89h52.7c20.49 0 24.88 4.39 24.88 24.89v54.15c-1.47 20.51-5.86 24.89-24.88 24.89zM662.42 40.38h52.7c20.49 0 24.89-4.39 24.89-24.88v-54.16c0-20.5-4.39-24.89-24.89-24.89h-52.7c-20.49 0-24.88 4.39-24.88 24.89v54.15c1.46 20.51 5.85 24.89 24.88 24.89zM362.48 228.1h-52.7c-20.49 0-24.89-4.39-24.89-24.88v-52.7c0-20.49 4.39-24.88 24.89-24.88h52.7c20.49 0 24.88 4.39 24.88 24.88v54.15c-1.47 19.04-5.86 23.43-24.88 23.43zM538.13 228.1h-52.7c-20.49 0-24.89-4.39-24.89-24.88v-52.7c0-20.49 4.39-24.88 24.89-24.88h52.7c20.5 0 24.89 4.39 24.89 24.88v54.15c-1.46 19.04-5.85 23.43-24.89 23.43zM362.48 405.22h-52.7c-20.49 0-24.89-4.39-24.89-24.88v-54.16c0-20.49 4.39-24.88 24.89-24.88h52.7c20.49 0 24.88 4.39 24.88 24.88v54.16c-1.47 21.95-5.86 24.88-24.88 24.88zM948.68 514l-419 313.65a28.7 28.7 0 0 1-34.37 0L75.53 514a28.7 28.7 0 1 1 34.35-46l40.54 30.3v-533.17a28.69 28.69 0 0 1 57.38 0v576.1l304.65 227.63 304.63-228v-575.7a28.69 28.69 0 0 1 28.69-28.69 28.69 28.69 0 0 1 28.69 28.69V497.88l39.83-29.81A28.7 28.7 0 1 1 948.68 514z"  horiz-adv-x="1024" />

    
    <glyph glyph-name="kuneijiagong" unicode="&#58891;" d="M763.7 328.31c-108.2 0-195.92-87.71-195.92-195.92S655.5-63.52 763.7-63.52s195.92 87.71 195.92 195.92S871.9 328.31 763.7 328.31z m0-346a150.08 150.08 0 1 0 150.08 150.08A150.08 150.08 0 0 0 763.7-17.68zM485-6.29h-1.91c-0.58 0-1.15 0-1.71-0.05H121.3V774.78h224v-240.85a35.52 35.52 0 0 1 35.52-35.52h264.54a35.52 35.52 0 0 1 35.52 35.52V774.78h221.43v-360.1c0-0.55-0.06-1.19-0.06-1.83a28.67 28.67 0 1 1 57.33 0c0 0.64 0 1.28-0.06 1.91l0.06-0.08V796.53a35.52 35.52 0 0 1-35.52 35.52H99.53A35.52 35.52 0 0 1 64 796.53V-28a35.52 35.52 0 0 1 35.52-35.52l385.41 0.06a28.67 28.67 0 0 1 0.09 57.2z m-82.45 781.07h221V555.7h-221zM865.81 197a11 11 0 0 1-18.16 2.91c-2.26-2.47-6.14-6-11-10.51l-4.15-3.81-0.33-0.32c-3.62-3.62-8.11-3.62-11.73 0a7.68 7.68 0 0 0 0 11.73c7.46 7.46 15.34 16.2 15.67 16.57a11 11 0 0 1-3.54 17.36 68.63 68.63 0 0 1-96-77.5L673 90.14c-14.13-14.13-14.18-37.4-0.11-51.88l0.11-0.11a36.9 36.9 0 0 1 52 0l63.29 63.29A69.09 69.09 0 0 1 852 119.71l0.07 0.07c20.37 20.34 25.75 50.66 13.74 77.22z m-29.25-61.6a47.14 47.14 0 0 0-48.08-11.18 11 11 0 0 1-11.28-2.66l-67.83-67.83a14.86 14.86 0 0 0-20.77-0.06 14.8 14.8 0 0 0-0.07 20.87l68.13 67.83a11 11 0 0 1 2.68 11.29 46.57 46.57 0 0 0 48 61.5c-0.85-0.87-1.7-1.73-2.54-2.57a29.65 29.65 0 0 1 0-42.89c12.17-12.17 30.49-12.22 42.71-0.18l2.4 2.2a46.05 46.05 0 0 0-13.35-36.32z"  horiz-adv-x="1024" />

    
    <glyph glyph-name="mobanguanli" unicode="&#58892;" d="M108.12 284.92h356.72a44.11 44.11 0 0 1 44.1 44.08V763.11a44.11 44.11 0 0 1-44.11 44.11H108.12A44.11 44.11 0 0 1 64 763.11V329a44.11 44.11 0 0 1 44.12-44.08z m13.23 443.79a21.17 21.17 0 0 0 21.17 21.17h287.92a21.17 21.17 0 0 0 21.17-21.17v-365.29a21.17 21.17 0 0 0-21.17-21.17H142.52a21.17 21.17 0 0 0-21.17 21.17zM677.66 284.92h238a44.19 44.19 0 0 1 44.19 44.19V440.59a44.19 44.19 0 0 1-44.19 44.19h-238a44.19 44.19 0 0 1-44.19-44.19v-111.48a44.19 44.19 0 0 1 44.19-44.19z m13.14 121.36a21.16 21.16 0 0 0 21.2 21.17h169.4a21.16 21.16 0 0 0 21.16-21.16v-42.87a21.16 21.16 0 0 0-21.16-21.16H712a21.16 21.16 0 0 0-21.16 21.16zM677.66 608.86h238a44.19 44.19 0 0 1 44.19 44.19V764.53a44.19 44.19 0 0 1-44.19 44.19h-238a44.19 44.19 0 0 1-44.19-44.19v-111.48a44.19 44.19 0 0 1 44.19-44.19z m13.14 121.37a21.16 21.16 0 0 0 21.2 21.16h169.4a21.16 21.16 0 0 0 21.16-21.16v-42.87a21.16 21.16 0 0 0-21.16-21.16H712a21.16 21.16 0 0 0-21.16 21.16zM914.93 161.14H109.27A45.26 45.26 0 0 1 64 115.88V5a45.26 45.26 0 0 1 45.26-45.26h805.67A45.26 45.26 0 0 1 960.19 5V115.88a45.26 45.26 0 0 1-45.26 45.26z m-12.08-122.81a21.22 21.22 0 0 0-21.23-21.22H142.57a21.22 21.22 0 0 0-21.23 21.22v44.25a21.23 21.23 0 0 0 21.23 21.23h739.06a21.23 21.23 0 0 0 21.23-21.23z"  horiz-adv-x="1024" />

    
    <glyph glyph-name="gongju" unicode="&#58893;" d="M817.87 339.69h-63.58v66.24A42.27 42.27 0 0 1 712 448.2h-84.81a42.27 42.27 0 0 1-42.27-42.27v-66.24H436.57v66.24a42.27 42.27 0 0 1-42.27 42.27h-84.83a42.27 42.27 0 0 1-42.27-42.27v-66.24h-61.83A22.39 22.39 0 0 1 183 317.3a22.39 22.39 0 0 1 22.39-22.39h61.81v-65.55a42.27 42.27 0 0 1 42.27-42.27h84.83a42.27 42.27 0 0 1 42.27 42.27v65.55h148.36v-65.55a42.27 42.27 0 0 1 42.27-42.27H712a42.27 42.27 0 0 1 42.27 42.27v65.55h63.58a22.39 22.39 0 0 1 22.39 22.39 22.39 22.39 0 0 1-22.37 22.39z m-438.64-95.26h-54.69V390.86h54.69z m317.72 0h-54.69V390.86H697zM823 693.42h-90.81v63.09a71.88 71.88 0 0 1-71.88 71.88H363.19a71.88 71.88 0 0 1-71.88-71.88v-63.08h-90.12A137.17 137.17 0 0 1 64 556.25v-479a137.17 137.17 0 0 1 137.19-137.14H823a137.17 137.17 0 0 1 137.19 137.17v479A137.17 137.17 0 0 1 823 693.42z m-474.36 54.1A23.52 23.52 0 0 0 372.17 771h279.16a23.52 23.52 0 0 0 23.52-23.52v-54.1h-326.2z m554.23-673.31a76.76 76.76 0 0 0-76.76-76.76h-628a76.76 76.76 0 0 0-76.76 76.76V559.33a76.76 76.76 0 0 0 76.76 76.76h628a76.76 76.76 0 0 0 76.76-76.76z"  horiz-adv-x="1024" />

    
    <glyph glyph-name="piliangyiku" unicode="&#58894;" d="M493.51 421.48h38.03v-74.25h-38.03zM744.59 404.93l-92.89 82.7c-12.75 11.36-33.42 11.36-46.24 0.11v-66.26h-38v-74.25h38v-66.48c12.83-11.25 33.46-11.25 46.24 0.11l92.89 82.71c12.83 11.43 12.83 29.96 0 41.36zM419.17 429.19v58.56c-12.83 11.25-33.49 11.25-46.24-0.11L280 404.93c-12.82-11.4-12.82-29.92 0-41.36l92.89-82.71c12.79-11.36 33.42-11.36 46.24-0.11v66.49h38v74.24h-38zM209.43 191.65H94.77A30.75 30.75 0 0 1 64 160.9v-117.2A30.75 30.75 0 0 1 94.77 13h114.66a30.75 30.75 0 0 1 30.75 30.75V160.9a30.75 30.75 0 0 1-30.75 30.75z m-25.77-121.37h-63.13v64h63.12zM209.43 473.6H94.77A30.75 30.75 0 0 1 64 442.84v-117.19a30.75 30.75 0 0 1 30.77-30.75h114.66a30.75 30.75 0 0 1 30.75 30.75V442.84a30.75 30.75 0 0 1-30.75 30.76z m-25.77-121.37h-63.13v64h63.12zM209.43 755.55H94.77A30.75 30.75 0 0 1 64 724.79V607.6a30.75 30.75 0 0 1 30.75-30.75h114.68a30.75 30.75 0 0 1 30.75 30.75V724.79a30.75 30.75 0 0 1-30.75 30.76z m-25.77-121.37h-63.13v64h63.12zM929.43 191.65H814.77A30.75 30.75 0 0 1 784 160.9v-117.2a30.75 30.75 0 0 1 30.77-30.7h114.66a30.75 30.75 0 0 1 30.75 30.75V160.9a30.75 30.75 0 0 1-30.75 30.75z m-25.77-121.37h-63.12v64h63.12zM929.43 473.6H814.77A30.75 30.75 0 0 1 784 442.84v-117.19a30.75 30.75 0 0 1 30.75-30.75h114.68a30.75 30.75 0 0 1 30.75 30.75V442.84a30.75 30.75 0 0 1-30.75 30.76z m-25.77-121.37h-63.12v64h63.12zM929.43 755.55H814.77A30.75 30.75 0 0 1 784 724.79V607.6a30.75 30.75 0 0 1 30.75-30.75h114.68a30.75 30.75 0 0 1 30.75 30.75V724.79a30.75 30.75 0 0 1-30.75 30.76z m-25.77-121.37h-63.12v64h63.12z"  horiz-adv-x="1024" />

    
    <glyph glyph-name="rukuqingdan" unicode="&#58895;" d="M683.7 615.94h-349a28.7 28.7 0 0 1-28.7-28.7 28.7 28.7 0 0 1 28.7-28.7h349a28.7 28.7 0 0 1 28.7 28.7 28.7 28.7 0 0 1-28.7 28.7zM306 474.82l406.39 0 0-57.39-406.39 0 0 57.39ZM306 333.69l273.94 0 0-57.39-273.94 0 0 57.39ZM306 192.56l167.98 0 0-57.39-167.98 0 0 57.39ZM698 271.45a167.5 167.5 0 1 1 167.5-167.5A167.5 167.5 0 0 1 698 271.45zM698-23a126.9 126.9 0 1 0 126.9 126.9A126.9 126.9 0 0 0 698-23zM798 832.18H226.2a67.55 67.55 0 0 1-67.55-67.55V4a67.55 67.55 0 0 1 67.55-67.55h268.61a28.7 28.7 0 0 1 0 57.39H242.54A26.49 26.49 0 0 0 216 20.33v728a26.49 26.49 0 0 0 26.49 26.49h539.17a26.49 26.49 0 0 0 26.49-26.49v-435.96a28.7 28.7 0 1 1 57.39 0V764.63A67.55 67.55 0 0 1 798 832.18zM762.32 31.8a16.93 16.93 0 0 0-10.32 3.87c-24.7 19.44-43 44.65-54.7 75.19a178.63 178.63 0 0 0-52.45-74.38l-0.42-0.33c-6.34-4.74-13.87-4.6-19.66 0.37l-0.45 0.39-0.39 0.44c-3.36 3.78-4.93 7.74-4.66 11.77a13.41 13.41 0 0 0 4.94 9.42l0.48 0.38c24.85 18.47 42.76 48.25 53.28 88.59H654.6c-10.92 0-15.55 6.73-16.24 13l-0.11 1 0.11 1c0.32 2.91 2.37 12.48 15.5 13.58h36.74a25.74 25.74 0 0 0 4.6-0.21l3.45-0.76c7.63-2.35 13-8.79 15.12-18.56 9.83-42.92 29-75.81 57.11-97.75l0.43-0.33 0.38-0.38c6.17-6.17 6.92-14.11 2-20.72l-0.38-0.51-0.45-0.45a14.73 14.73 0 0 0-10.54-4.62z"  horiz-adv-x="1024" />

    
    <glyph glyph-name="ruku" unicode="&#58896;" d="M621.67 209.51a55.21 55.21 0 0 1-17-40.91c0.13-19.7 12.42-32.26 20.14-39.9l92.51-102.64q0.53-0.59 1.09-1.14l0.07-0.07c4.51-4.39 13.89-13.53 30.39-13.53 23.42 0 41.09 17.65 41.09 41v39c38.78-4.11 68.62-25.32 94.67-66.6 7.82-14.71 19.41-22.16 34.47-22.16 19.41 0 41 16.86 41 41a24.21 24.21 0 0 1-0.16 2.75c-0.21 1.87-0.42 4.74-0.66 8.06-1.61 22.17-5 68.29-30.26 110.27a164.36 164.36 0 0 1-58.74 57.83c-22.75 13.25-49.74 22-80.45 26.15v31.73c0 11.16-4.9 22.46-13.43 31s-19.83 13.43-31 13.43c-17.09 0-26.72-9.88-30.82-14.1l-0.48-0.51z m31.59-39.92a6.66 6.66 0 0 0 2.15 5q0.74 0.68 1.42 1.43l84.53 92v-41.31a24.28 24.28 0 0 1 22.86-24.24c106.36-6.23 135.4-67.14 144.14-127.22-14.88 18.58-31.06 32.95-49 43.56C832 135 800 142.29 764.44 140.39a24.28 24.28 0 0 1-23-24.24v-44.28l-81 89.86q-0.47 0.53-1 1c-1.69 1.73-5.17 5.16-6.18 6.85zM538.13 40.38h-52.7c-20.49 0-24.89-4.39-24.89-24.88v-54.16c0-20.5 4.39-24.89 24.89-24.89h52.7c20.5 0 24.89 4.39 24.89 24.89v54.15c-1.46 20.51-5.85 24.89-24.89 24.89zM362.48 40.38h-52.7c-20.49 0-24.89-4.39-24.89-24.88v-54.16c0-20.5 4.39-24.89 24.89-24.89h52.7c20.49 0 24.88 4.39 24.88 24.89v54.15c-1.47 20.51-5.86 24.89-24.88 24.89zM362.48 228.1h-52.7c-20.49 0-24.89-4.39-24.89-24.88v-52.7c0-20.49 4.39-24.88 24.89-24.88h52.7c20.49 0 24.88 4.39 24.88 24.88v54.15c-1.47 19.04-5.86 23.43-24.88 23.43zM485.43 405.22c-20.49 0-24.88-4.39-24.88-24.88v-54.16c0-20.5 4.39-24.89 24.88-24.89h52.7c20.49 0 24.88 4.39 24.88 24.89v54.16c-1.46 20.49-5.85 24.88-24.88 24.88zM538.13 228.1h-52.7c-20.49 0-24.89-4.39-24.89-24.88v-52.7c0-20.49 4.39-24.88 24.89-24.88h52.7c20.5 0 24.89 4.39 24.89 24.88v54.15c-1.46 19.04-5.85 23.43-24.89 23.43zM362.48 405.22h-52.7c-20.49 0-24.89-4.39-24.89-24.88v-54.16c0-20.49 4.39-24.88 24.89-24.88h52.7c20.49 0 24.88 4.39 24.88 24.88v54.16c-1.47 21.95-5.86 24.88-24.88 24.88zM914.29 468.07A28.7 28.7 0 1 1 948.68 514l-419 313.65a28.7 28.7 0 0 1-34.37 0L75.53 514a28.7 28.7 0 1 1 34.35-46l40.54 30.3v-533.17a28.69 28.69 0 0 1 57.38 0v576.1l304.65 227.63z"  horiz-adv-x="1024" />

    
    <glyph glyph-name="tiaobochuku" unicode="&#58897;" d="M943.94 597.52L776.8 770a57.64 57.64 0 0 1-41.4 17.53H288.8A57.64 57.64 0 0 1 247.4 770L80.26 597.52a57.64 57.64 0 0 1-15.91-46.32l56.15-518.8a57.64 57.64 0 0 1 57.31-51.4h668.57a57.64 57.64 0 0 1 57.31 51.44l56.16 518.8a57.64 57.64 0 0 1-15.91 46.28zM846.38 38.6H177.81L127.87 500h768.46z m56.16 518.75H121.66L288.8 715.78h446.6L902.54 557.4zM282.45 298h55a7.71 7.71 0 0 0 7.71-7.71V100a7.71 7.71 0 0 1 7.71-7.71h58.63a7.71 7.71 0 0 1 7.71 7.71V290.31a7.71 7.71 0 0 0 7.71 7.71h55a7.59 7.59 0 0 1 6.32 3.29c8.65 12.86 7.8 31.23-2.64 43l-82.74 92.93a27 27 0 0 1-41.37 0l-82.74-92.93c-10.44-11.75-11.29-30.11-2.64-43a7.59 7.59 0 0 1 6.34-3.31zM669.43 162.64a17.25 17.25 0 0 1 26.39 0l52.78 59.28c6.66 7.49 7.2 19.21 1.68 27.41a4.84 4.84 0 0 1-4 2.1h-35.11a4.92 4.92 0 0 0-4.92 4.92V377.73a4.92 4.92 0 0 1-4.92 4.92h-37.4a4.92 4.92 0 0 1-4.92-4.92v-121.38a4.92 4.92 0 0 0-4.92-4.92H619a4.84 4.84 0 0 1-4-2.1c-5.52-8.2-5-19.92 1.68-27.41z"  horiz-adv-x="1024" />

    
    <glyph glyph-name="tiaoboruku" unicode="&#58898;" d="M943.94 597.52L776.8 770a57.64 57.64 0 0 1-41.4 17.53H288.8A57.64 57.64 0 0 1 247.4 770L80.26 597.52a57.64 57.64 0 0 1-15.91-46.32l56.15-518.8a57.64 57.64 0 0 1 57.31-51.4h668.57a57.64 57.64 0 0 1 57.31 51.44l56.16 518.8a57.65 57.65 0 0 1-15.91 46.28zM846.38 38.6H177.81L127.87 500h768.46z m56.16 518.75H121.66L288.8 715.78h446.6L902.54 557.4zM621.41 101.94a27 27 0 0 1 41.37 0l82.74 92.93c10.44 11.75 11.29 30.11 2.64 43a7.59 7.59 0 0 1-6.32 3.29h-55a7.71 7.71 0 0 0-7.71 7.71V439.12a7.71 7.71 0 0 1-7.71 7.71h-58.65a7.71 7.71 0 0 1-7.71-7.71v-190.28a7.71 7.71 0 0 0-7.71-7.71h-55a7.59 7.59 0 0 1-6.32-3.29c-8.65-12.86-7.8-31.23 2.64-43zM278 287.72h35.09a4.92 4.92 0 0 0 4.91-4.92v-121.38a4.92 4.92 0 0 1 5-4.92h37.4a4.92 4.92 0 0 1 4.92 4.92V282.8a4.92 4.92 0 0 0 4.92 4.92h35.09a4.84 4.84 0 0 1 4 2.1c5.52 8.2 5 19.92-1.68 27.41l-52.78 59.28a17.25 17.25 0 0 1-26.39 0l-52.78-59.28c-6.66-7.49-7.2-19.21-1.68-27.41a4.84 4.84 0 0 1 3.98-2.1z"  horiz-adv-x="1024" />

    
    <glyph glyph-name="tuihuochuli" unicode="&#58899;" d="M283.64 189.8a17 17 0 0 1-3.61-9.88q0-7.7 6.74-12.29a48.65 48.65 0 0 1 11.09-6q6.74 0 17.83 5.78a163.08 163.08 0 0 1 25.06 16.87A134 134 0 0 1 376.89 230q45.29-65.54 167.22-65.54h181.67q17.83 0 17.83 18.31t-17.83 18.31H534.47q-60.72 0-98.31 21.45t-45.3 58.55V431.47a141.39 141.39 0 0 1-1.2 20.73q-1.21 7.7-4.58 12.05a15.42 15.42 0 0 1-9.64 5.54 90.5 90.5 0 0 1-16.39 1.2h-61.2q-10.12 0-13.73-5.3t-3.62-15.42q0-16.39 17.35-16.38h52c2.89 0 4.34-2.1 4.34-6.27V276.3q0-44.81-57.83-76.62h0.48q-9.6-4.81-13.2-9.88zM355.68 584.72q-9.65 7.7-16.39 12.53-12.54 9.64-20.72 9.64-9.65 0-13-6.5a76 76 0 0 1-5.3-12.77c0-2.89 1.12-6 3.37-9.16a30.49 30.49 0 0 1 10.12-8.67 101.31 101.31 0 0 0 12.24-8.2q7-5.31 16.63-13.49 9.63-7.23 17.34-14.22t14-13.25q13.48-13.49 21.2-13.49 7.23 0 13.25 6.27t6 13.49q0 6.74-5.78 13.49-4.83 5.3-31.33 26.51h0.48q-11.01 8.92-22.11 17.82zM696.63 399.91q8.91 9.4 8.91 32.53V555.81q0 22.65-8.67 31.57T666 596.29H473.75q-22.17 0-30.36-8.44t-8.19-32v-293.53q0-19.28 5.3-28.43 7.23-12 21.68-12 12 0 44.34 10.6 14.23 4.89 28.43 9.88 13 4.58 23.62 9.4a160.46 160.46 0 0 1 18.07 9.39 83.77 83.77 0 0 1 10.12 7.23q3.62 3.13 4.58 5.54a14.2 14.2 0 0 1 1 5.3q0 4.33-3.85 10.6h0.48q-3.38 6.25-12 6.5t-25.06-7.95a134.16 134.16 0 0 0-19-8.44Q519.63 275 506.52 270q-11.07-3.56-22.17-7c-6.75-2.1-10.77-3.13-12-3.13q-1 0-1 6.26V390.51h27.47q39-34.7 72.29-65.06T630.37 271q14-13.07 27.71-26.51T685.79 218h-0.48q6.25-6.26 12.77-6.27t12.77 5.3q6.75 5.78 6.75 13.49a19.16 19.16 0 0 1-2.17 8 32.42 32.42 0 0 1-6.51 8.91q-2.42 2.41-14.94 13.73t-34.21 31.04q-3.56 3.06-7 6.27-3.8 3.55-7.46 7.23 13.48 8.2 24.33 15.9t19.51 14.94q24.58 20.72 24.58 33.25 0 2.4-2.41 7.23a19.13 19.13 0 0 1-7 7.71q-4.59 2.89-11.33 1.68t-15.42-9.88A323 323 0 0 0 649.89 352a335 335 0 0 0-30.6-21.69q-16.21 14.69-32.77 29.12-16.39 14.21-35.18 31.08H666q21.71 0 30.63 9.4z m-225.29 152a14.84 14.84 0 0 0 1 6.27c0.64 1.28 2.25 1.93 4.82 1.93h186q6.74 0 6.74-8.2v-41H471.34z m0-125.29v49.19h198.54v-40q0-9.16-6.74-9.16zM924.42 558.56a447.89 447.89 0 1 1-807.2-386.21 28.72 28.72 0 0 1 50.57 27.21 391 391 0 0 0-46.36 184.68c0 215.25 175.12 390.38 390.38 390.38S902.19 599.5 902.19 384.25 727.07-6.13 511.82-6.13a388.12 388.12 0 0 0-221.29 68.73 28.72 28.72 0 0 1-32.6-47.28 448 448 0 0 1 666.49 543.24z"  horiz-adv-x="1024" />

    
    <glyph glyph-name="tuihuofenlei" unicode="&#58900;" d="M401.07 353H143.52A79.51 79.51 0 0 1 64 273.5V16a79.51 79.51 0 0 1 79.51-79.51h257.56A79.51 79.51 0 0 1 480.58 16V273.5a79.51 79.51 0 0 1-79.51 79.5z m22.21-323A36.31 36.31 0 0 0 387-6.25H157.63a36.31 36.31 0 0 0-36.31 36.31V259.4a36.31 36.31 0 0 0 36.31 36.31H387a36.31 36.31 0 0 0 36.31-36.31zM401.07 832.05H143.52A79.51 79.51 0 0 1 64 752.54V495a79.51 79.51 0 0 1 79.51-79.51h257.56A79.51 79.51 0 0 1 480.58 495V752.54a79.51 79.51 0 0 1-79.51 79.51z m22.21-323A36.31 36.31 0 0 0 387 472.79H157.63a36.31 36.31 0 0 0-36.31 36.31V738.44a36.31 36.31 0 0 0 36.31 36.31H387a36.31 36.31 0 0 0 36.31-36.31zM880.2 832.05H622.65a79.51 79.51 0 0 1-79.51-79.51V495a79.51 79.51 0 0 1 79.51-79.51H880.2A79.51 79.51 0 0 1 959.71 495V752.54a79.51 79.51 0 0 1-79.51 79.51z m22.21-323a36.31 36.31 0 0 0-36.31-36.31H636.76a36.31 36.31 0 0 0-36.31 36.31V738.44a36.31 36.31 0 0 0 36.31 36.31h229.33a36.31 36.31 0 0 0 36.31-36.31zM663.12 69.48a6.58 6.58 0 0 1-1.4-3.82 5.48 5.48 0 0 1 2.61-4.76 18.83 18.83 0 0 1 4.29-2.33q2.61 0 6.9 2.24a63.1 63.1 0 0 1 9.7 6.53 51.84 51.84 0 0 1 14 17.72q17.53-25.36 64.71-25.36h70.31q6.9 0 6.9 7.09t-6.9 7.09h-74q-23.5 0-38 8.3t-17.53 22.66V163a54.73 54.73 0 0 1-0.47 8 10.09 10.09 0 0 1-1.77 4.66 6 6 0 0 1-3.73 2.14 35 35 0 0 1-6.34 0.47h-23.78q-3.92 0-5.31-2.05a10.59 10.59 0 0 1-1.4-6q0-6.34 6.71-6.34h20.14c1.12 0 1.68-0.81 1.68-2.43V103q0-17.34-22.38-29.65h0.19a13.81 13.81 0 0 1-5.13-3.87zM691 222.31q-3.73 3-6.34 4.85-4.85 3.73-8 3.73-3.73 0-5-2.52a29.41 29.41 0 0 1-2.05-4.94 6.24 6.24 0 0 1 1.31-3.54 11.8 11.8 0 0 1 3.92-3.36 39.23 39.23 0 0 0 4.76-3.17q2.7-2.05 6.44-5.22 3.73-2.8 6.71-5.5t5.41-5.13q5.22-5.22 8.21-5.22a7 7 0 0 1 5.13 2.42 7.43 7.43 0 0 1 2.33 5.22 8.06 8.06 0 0 1-2.24 5.22q-1.87 2.05-12.12 10.26h0.19zM822.95 150.79q3.45 3.64 3.45 12.59v47.74q0 8.76-3.36 12.22t-11.94 3.45h-74.41q-8.58 0-11.75-3.26t-3.17-12.4v-113.59q0-7.46 2.05-11a9.16 9.16 0 0 1 8.39-4.66q4.66 0 17.16 4.1 5.51 1.89 11 3.82 5 1.77 9.14 3.64a62.08 62.08 0 0 1 7 3.64 32.41 32.41 0 0 1 3.92 2.8 6.21 6.21 0 0 1 1.77 2.12 5.5 5.5 0 0 1 0.37 2.05 8.32 8.32 0 0 1-1.49 4.1h0.19a5 5 0 0 1-4.66 2.52q-3.36 0.09-9.7-3.08a51.92 51.92 0 0 0-7.37-3.26q-5.09-1.9-10.16-3.82-4.28-1.38-8.58-2.7a26.9 26.9 0 0 0-4.66-1.21q-0.38 0-0.37 2.42v48.13h10.63q15.11-13.43 28-25.18t22.9-21.07q5.43-5.06 10.72-10.26t10.72-10.26h-0.19a7.06 7.06 0 0 1 4.95-2.38 7.64 7.64 0 0 1 4.94 2.05 6.71 6.71 0 0 1 2.61 5.22 7.41 7.41 0 0 1-0.84 3.08 12.55 12.55 0 0 1-2.52 3.45q-0.94 0.93-5.78 5.31t-13.24 12q-1.38 1.18-2.71 2.42t-2.89 2.8q5.22 3.17 9.42 6.15t7.55 5.78q9.51 8 9.51 12.87a7.19 7.19 0 0 1-0.93 2.8 7.41 7.41 0 0 1-2.7 3 6 6 0 0 1-4.38 0.65q-2.62-0.47-6-3.82a125 125 0 0 0-10.72-9.51 129.63 129.63 0 0 0-11.82-8.41q-6.27 5.72-12.68 11.28t-13.61 12h44.39q8.4 0.03 11.85 3.67z m-87.19 58.84a5.74 5.74 0 0 0 0.37 2.42c0.25 0.5 0.87 0.75 1.86 0.75h72q2.61 0 2.61-3.17v-15.85h-76.84z m0-48.49v19h76.84v-15.48q0-3.55-2.61-3.54zM751.43 348.51a203.88 203.88 0 0 1-187.27-284.27 24.24 24.24 0 1 1 44.54 19.17 154.23 154.23 0 0 0-12.57 61.32c0 85.63 69.67 155.27 155.3 155.27s155.29-69.66 155.29-155.29-69.67-155.27-155.29-155.27A154.56 154.56 0 0 0 694.9 0a24.24 24.24 0 0 1-17.66-45.16 203.8 203.8 0 1 1 74.18 393.63z"  horiz-adv-x="1024" />

    


  </font>
</defs>
</svg>
